<mxfile host="Electron" modified="2024-10-27T08:56:08.671Z" agent="Mozilla/5.0 (Windows NT 10.0; Win64; x64) AppleWebKit/537.36 (KHTML, like Gecko) draw.io/24.6.4 Chrome/124.0.6367.207 Electron/30.0.6 Safari/537.36" etag="qBlaEfUuouEXE6-EtHDy" version="24.6.4" type="device">
  <diagram name="Page-1" id="jV77SFPxc7joPnHyWRUS">
    <mxGraphModel dx="3475" dy="1793" grid="1" gridSize="10" guides="1" tooltips="1" connect="1" arrows="1" fold="1" page="1" pageScale="1" pageWidth="850" pageHeight="1100" math="0" shadow="0">
      <root>
        <mxCell id="0" />
        <mxCell id="1" parent="0" />
        <mxCell id="_Nc8eTW4AAFqFcOwRR8p-14" value="" style="group;rotation=90;" vertex="1" connectable="0" parent="1">
          <mxGeometry x="-629.9999999999991" y="804.997272727273" width="1030" height="480" as="geometry" />
        </mxCell>
        <mxCell id="_Nc8eTW4AAFqFcOwRR8p-367" value="" style="group" vertex="1" connectable="0" parent="_Nc8eTW4AAFqFcOwRR8p-14">
          <mxGeometry x="456.99" y="-267.18750000000455" width="272.01" height="707.1875000000045" as="geometry" />
        </mxCell>
        <mxCell id="_Nc8eTW4AAFqFcOwRR8p-9" value="" style="endArrow=block;startArrow=block;html=1;rounded=0;endSize=12;strokeWidth=2;startSize=12;startFill=1;endFill=1;sourcePerimeterSpacing=17;" edge="1" parent="_Nc8eTW4AAFqFcOwRR8p-367">
          <mxGeometry width="50" height="50" relative="1" as="geometry">
            <mxPoint x="98.00999999999999" y="579.3750000000099" as="sourcePoint" />
            <mxPoint x="98.00999999999999" as="targetPoint" />
          </mxGeometry>
        </mxCell>
        <mxCell id="_Nc8eTW4AAFqFcOwRR8p-10" value="" style="endArrow=block;startArrow=block;html=1;rounded=0;endSize=12;strokeWidth=2;startSize=12;startFill=1;endFill=1;sourcePerimeterSpacing=17;" edge="1" parent="_Nc8eTW4AAFqFcOwRR8p-367">
          <mxGeometry width="50" height="50" relative="1" as="geometry">
            <mxPoint x="78.00999999999999" y="579.3750000000099" as="sourcePoint" />
            <mxPoint x="78.00999999999999" as="targetPoint" />
          </mxGeometry>
        </mxCell>
        <mxCell id="_Nc8eTW4AAFqFcOwRR8p-11" value="" style="endArrow=block;startArrow=block;html=1;rounded=0;endSize=12;strokeWidth=2;startSize=12;startFill=1;endFill=1;sourcePerimeterSpacing=17;" edge="1" parent="_Nc8eTW4AAFqFcOwRR8p-367">
          <mxGeometry width="50" height="50" relative="1" as="geometry">
            <mxPoint x="58.00999999999999" y="579.3750000000099" as="sourcePoint" />
            <mxPoint x="58.00999999999999" as="targetPoint" />
          </mxGeometry>
        </mxCell>
        <mxCell id="_Nc8eTW4AAFqFcOwRR8p-12" value="" style="endArrow=block;startArrow=block;html=1;rounded=0;endSize=12;strokeWidth=2;startSize=12;startFill=1;endFill=1;sourcePerimeterSpacing=17;" edge="1" parent="_Nc8eTW4AAFqFcOwRR8p-367">
          <mxGeometry width="50" height="50" relative="1" as="geometry">
            <mxPoint x="38.00999999999999" y="579.3750000000099" as="sourcePoint" />
            <mxPoint x="38.00999999999999" as="targetPoint" />
          </mxGeometry>
        </mxCell>
        <mxCell id="_Nc8eTW4AAFqFcOwRR8p-13" value="" style="endArrow=block;startArrow=block;html=1;rounded=0;endSize=12;strokeWidth=2;startSize=12;startFill=1;endFill=1;sourcePerimeterSpacing=17;" edge="1" parent="_Nc8eTW4AAFqFcOwRR8p-367">
          <mxGeometry width="50" height="50" relative="1" as="geometry">
            <mxPoint x="18.00999999999999" y="579.3750000000099" as="sourcePoint" />
            <mxPoint x="18.00999999999999" as="targetPoint" />
          </mxGeometry>
        </mxCell>
        <mxCell id="_Nc8eTW4AAFqFcOwRR8p-323" value="" style="rounded=0;whiteSpace=wrap;html=1;rotation=90;" vertex="1" parent="_Nc8eTW4AAFqFcOwRR8p-367">
          <mxGeometry x="-6.990000000000009" y="597.1875000000045" width="46.25" height="15" as="geometry" />
        </mxCell>
        <mxCell id="_Nc8eTW4AAFqFcOwRR8p-324" value="" style="rounded=0;whiteSpace=wrap;html=1;rotation=90;" vertex="1" parent="_Nc8eTW4AAFqFcOwRR8p-367">
          <mxGeometry x="13.009999999999991" y="597.1875000000045" width="46.25" height="13.75" as="geometry" />
        </mxCell>
        <mxCell id="_Nc8eTW4AAFqFcOwRR8p-325" value="" style="rounded=0;whiteSpace=wrap;html=1;rotation=90;" vertex="1" parent="_Nc8eTW4AAFqFcOwRR8p-367">
          <mxGeometry x="34.879999999999995" y="597.1875000000045" width="46.25" height="13.75" as="geometry" />
        </mxCell>
        <mxCell id="_Nc8eTW4AAFqFcOwRR8p-328" value="" style="rounded=0;whiteSpace=wrap;html=1;rotation=90;" vertex="1" parent="_Nc8eTW4AAFqFcOwRR8p-367">
          <mxGeometry x="53.00999999999999" y="597.1875000000045" width="46.25" height="13.75" as="geometry" />
        </mxCell>
        <mxCell id="_Nc8eTW4AAFqFcOwRR8p-329" value="" style="rounded=0;whiteSpace=wrap;html=1;rotation=90;" vertex="1" parent="_Nc8eTW4AAFqFcOwRR8p-367">
          <mxGeometry x="72.75999999999999" y="597.1875000000045" width="46.25" height="13.75" as="geometry" />
        </mxCell>
        <mxCell id="_Nc8eTW4AAFqFcOwRR8p-361" value="" style="rounded=0;whiteSpace=wrap;html=1;" vertex="1" parent="_Nc8eTW4AAFqFcOwRR8p-367">
          <mxGeometry y="632.1875000000045" width="110" height="75" as="geometry" />
        </mxCell>
        <mxCell id="_Nc8eTW4AAFqFcOwRR8p-362" value="" style="rounded=0;whiteSpace=wrap;html=1;" vertex="1" parent="_Nc8eTW4AAFqFcOwRR8p-367">
          <mxGeometry x="162.01" y="632.1875000000045" width="110" height="75" as="geometry" />
        </mxCell>
        <mxCell id="_Nc8eTW4AAFqFcOwRR8p-373" value="&lt;font face=&quot;Times New Roman&quot; style=&quot;font-size: 20px;&quot;&gt;&lt;i&gt;y&lt;sub&gt;R&lt;/sub&gt;&lt;/i&gt;&lt;/font&gt;" style="text;html=1;align=center;verticalAlign=middle;resizable=0;points=[];autosize=1;strokeColor=none;fillColor=none;" vertex="1" parent="_Nc8eTW4AAFqFcOwRR8p-14">
          <mxGeometry x="369.9999999999991" y="-250.437272727273" width="40" height="40" as="geometry" />
        </mxCell>
        <mxCell id="_Nc8eTW4AAFqFcOwRR8p-374" value="&lt;font face=&quot;Times New Roman&quot; style=&quot;font-size: 20px;&quot;&gt;&lt;i&gt;y&lt;sub&gt;r+1&lt;/sub&gt;&lt;/i&gt;&lt;/font&gt;" style="text;html=1;align=center;verticalAlign=middle;resizable=0;points=[];autosize=1;strokeColor=none;fillColor=none;" vertex="1" parent="_Nc8eTW4AAFqFcOwRR8p-14">
          <mxGeometry x="359.9999999999991" y="-167.99727272727296" width="60" height="40" as="geometry" />
        </mxCell>
        <mxCell id="_Nc8eTW4AAFqFcOwRR8p-375" value="&lt;font face=&quot;Times New Roman&quot; style=&quot;font-size: 20px;&quot;&gt;&lt;i&gt;y&lt;sub&gt;r&lt;/sub&gt;&lt;/i&gt;&lt;/font&gt;" style="text;html=1;align=center;verticalAlign=middle;resizable=0;points=[];autosize=1;strokeColor=none;fillColor=none;" vertex="1" parent="_Nc8eTW4AAFqFcOwRR8p-14">
          <mxGeometry x="369.9999999999991" y="-134.99727272727296" width="40" height="40" as="geometry" />
        </mxCell>
        <mxCell id="_Nc8eTW4AAFqFcOwRR8p-376" value="&lt;font face=&quot;Times New Roman&quot; style=&quot;font-size: 20px;&quot;&gt;1&lt;/font&gt;" style="text;html=1;align=center;verticalAlign=middle;resizable=0;points=[];autosize=1;strokeColor=none;fillColor=none;" vertex="1" parent="_Nc8eTW4AAFqFcOwRR8p-14">
          <mxGeometry x="389.9999999999991" y="195.00272727272704" width="30" height="40" as="geometry" />
        </mxCell>
        <mxCell id="_Nc8eTW4AAFqFcOwRR8p-377" value="&lt;p style=&quot;line-height: 0%;&quot;&gt;&lt;font size=&quot;1&quot; style=&quot;&quot;&gt;&lt;b style=&quot;font-size: 43px;&quot;&gt;.&lt;br&gt;.&lt;br&gt;.&lt;br&gt;.&lt;/b&gt;&lt;/font&gt;&lt;/p&gt;" style="text;html=1;align=center;verticalAlign=middle;resizable=0;points=[];autosize=1;strokeColor=none;fillColor=none;" vertex="1" parent="_Nc8eTW4AAFqFcOwRR8p-14">
          <mxGeometry x="384.9999999999991" y="-44.99727272727296" width="40" height="90" as="geometry" />
        </mxCell>
        <mxCell id="_Nc8eTW4AAFqFcOwRR8p-21" value="" style="group;rotation=90;" vertex="1" connectable="0" parent="1">
          <mxGeometry x="-319.9999999999991" y="804.997272727273" width="1030" height="440" as="geometry" />
        </mxCell>
        <mxCell id="_Nc8eTW4AAFqFcOwRR8p-22" value="" style="endArrow=block;startArrow=block;html=1;rounded=0;endSize=12;strokeWidth=2;startSize=12;startFill=1;endFill=1;sourcePerimeterSpacing=17;" edge="1" parent="_Nc8eTW4AAFqFcOwRR8p-21">
          <mxGeometry width="50" height="50" relative="1" as="geometry">
            <mxPoint x="555" y="312.18750000000534" as="sourcePoint" />
            <mxPoint x="555" y="-267.18750000000455" as="targetPoint" />
          </mxGeometry>
        </mxCell>
        <mxCell id="_Nc8eTW4AAFqFcOwRR8p-23" value="" style="endArrow=block;startArrow=block;html=1;rounded=0;endSize=12;strokeWidth=2;startSize=12;startFill=1;endFill=1;sourcePerimeterSpacing=17;" edge="1" parent="_Nc8eTW4AAFqFcOwRR8p-21">
          <mxGeometry width="50" height="50" relative="1" as="geometry">
            <mxPoint x="535" y="312.18750000000534" as="sourcePoint" />
            <mxPoint x="535" y="-267.18750000000455" as="targetPoint" />
          </mxGeometry>
        </mxCell>
        <mxCell id="_Nc8eTW4AAFqFcOwRR8p-24" value="" style="endArrow=block;startArrow=block;html=1;rounded=0;endSize=12;strokeWidth=2;startSize=12;startFill=1;endFill=1;sourcePerimeterSpacing=17;" edge="1" parent="_Nc8eTW4AAFqFcOwRR8p-21">
          <mxGeometry width="50" height="50" relative="1" as="geometry">
            <mxPoint x="515" y="312.18750000000534" as="sourcePoint" />
            <mxPoint x="515" y="-267.18750000000455" as="targetPoint" />
          </mxGeometry>
        </mxCell>
        <mxCell id="_Nc8eTW4AAFqFcOwRR8p-25" value="" style="endArrow=block;startArrow=block;html=1;rounded=0;endSize=12;strokeWidth=2;startSize=12;startFill=1;endFill=1;sourcePerimeterSpacing=17;" edge="1" parent="_Nc8eTW4AAFqFcOwRR8p-21">
          <mxGeometry width="50" height="50" relative="1" as="geometry">
            <mxPoint x="495" y="312.18750000000534" as="sourcePoint" />
            <mxPoint x="495" y="-267.18750000000455" as="targetPoint" />
          </mxGeometry>
        </mxCell>
        <mxCell id="_Nc8eTW4AAFqFcOwRR8p-26" value="" style="endArrow=block;startArrow=block;html=1;rounded=0;endSize=12;strokeWidth=2;startSize=12;startFill=1;endFill=1;sourcePerimeterSpacing=17;" edge="1" parent="_Nc8eTW4AAFqFcOwRR8p-21">
          <mxGeometry width="50" height="50" relative="1" as="geometry">
            <mxPoint x="475" y="312.18750000000534" as="sourcePoint" />
            <mxPoint x="475" y="-267.18750000000455" as="targetPoint" />
          </mxGeometry>
        </mxCell>
        <mxCell id="_Nc8eTW4AAFqFcOwRR8p-187" value="" style="group;aspect=fixed;" vertex="1" connectable="0" parent="_Nc8eTW4AAFqFcOwRR8p-21">
          <mxGeometry x="459.9999999999991" y="-414.99727272727296" width="90" height="268.04" as="geometry" />
        </mxCell>
        <mxCell id="_Nc8eTW4AAFqFcOwRR8p-188" value="" style="endArrow=none;html=1;rounded=0;strokeWidth=4;" edge="1" parent="_Nc8eTW4AAFqFcOwRR8p-187">
          <mxGeometry width="50" height="50" relative="1" as="geometry">
            <mxPoint x="20.76923076923077" y="142.50465197621546" as="sourcePoint" />
            <mxPoint x="20.76923076923077" y="22.500734522560336" as="targetPoint" />
          </mxGeometry>
        </mxCell>
        <mxCell id="_Nc8eTW4AAFqFcOwRR8p-189" value="" style="endArrow=none;html=1;rounded=0;strokeWidth=4;" edge="1" parent="_Nc8eTW4AAFqFcOwRR8p-187">
          <mxGeometry width="50" height="50" relative="1" as="geometry">
            <mxPoint x="69.23076923076923" y="142.50465197621546" as="sourcePoint" />
            <mxPoint x="69.23076923076923" y="22.500734522560336" as="targetPoint" />
          </mxGeometry>
        </mxCell>
        <mxCell id="_Nc8eTW4AAFqFcOwRR8p-190" value="" style="endArrow=none;html=1;rounded=0;" edge="1" parent="_Nc8eTW4AAFqFcOwRR8p-187">
          <mxGeometry width="50" height="50" relative="1" as="geometry">
            <mxPoint x="45" y="142.50465197621546" as="sourcePoint" />
            <mxPoint x="45" as="targetPoint" />
          </mxGeometry>
        </mxCell>
        <mxCell id="_Nc8eTW4AAFqFcOwRR8p-191" value="" style="endArrow=none;html=1;rounded=0;" edge="1" parent="_Nc8eTW4AAFqFcOwRR8p-187">
          <mxGeometry width="50" height="50" relative="1" as="geometry">
            <mxPoint x="20.76923076923077" y="30.000979363413784" as="sourcePoint" />
            <mxPoint x="69.23076923076923" y="30.000979363413784" as="targetPoint" />
          </mxGeometry>
        </mxCell>
        <mxCell id="_Nc8eTW4AAFqFcOwRR8p-192" value="" style="endArrow=none;html=1;rounded=0;" edge="1" parent="_Nc8eTW4AAFqFcOwRR8p-187">
          <mxGeometry width="50" height="50" relative="1" as="geometry">
            <mxPoint x="20.76923076923077" y="37.50122420426723" as="sourcePoint" />
            <mxPoint x="69.23076923076923" y="37.50122420426723" as="targetPoint" />
          </mxGeometry>
        </mxCell>
        <mxCell id="_Nc8eTW4AAFqFcOwRR8p-193" value="" style="endArrow=none;html=1;rounded=0;" edge="1" parent="_Nc8eTW4AAFqFcOwRR8p-187">
          <mxGeometry width="50" height="50" relative="1" as="geometry">
            <mxPoint x="20.76923076923077" y="45.00146904512067" as="sourcePoint" />
            <mxPoint x="69.23076923076923" y="45.00146904512067" as="targetPoint" />
          </mxGeometry>
        </mxCell>
        <mxCell id="_Nc8eTW4AAFqFcOwRR8p-194" value="" style="endArrow=none;html=1;rounded=0;" edge="1" parent="_Nc8eTW4AAFqFcOwRR8p-187">
          <mxGeometry width="50" height="50" relative="1" as="geometry">
            <mxPoint x="20.76923076923077" y="52.50171388597412" as="sourcePoint" />
            <mxPoint x="69.23076923076923" y="52.50171388597412" as="targetPoint" />
          </mxGeometry>
        </mxCell>
        <mxCell id="_Nc8eTW4AAFqFcOwRR8p-195" value="" style="endArrow=none;html=1;rounded=0;" edge="1" parent="_Nc8eTW4AAFqFcOwRR8p-187">
          <mxGeometry width="50" height="50" relative="1" as="geometry">
            <mxPoint x="20.76923076923077" y="60.00195872682757" as="sourcePoint" />
            <mxPoint x="69.23076923076923" y="60.00195872682757" as="targetPoint" />
          </mxGeometry>
        </mxCell>
        <mxCell id="_Nc8eTW4AAFqFcOwRR8p-196" value="" style="endArrow=none;html=1;rounded=0;" edge="1" parent="_Nc8eTW4AAFqFcOwRR8p-187">
          <mxGeometry width="50" height="50" relative="1" as="geometry">
            <mxPoint x="20.76923076923077" y="67.50220356768101" as="sourcePoint" />
            <mxPoint x="69.23076923076923" y="67.50220356768101" as="targetPoint" />
          </mxGeometry>
        </mxCell>
        <mxCell id="_Nc8eTW4AAFqFcOwRR8p-197" value="" style="endArrow=none;html=1;rounded=0;" edge="1" parent="_Nc8eTW4AAFqFcOwRR8p-187">
          <mxGeometry width="50" height="50" relative="1" as="geometry">
            <mxPoint x="20.76923076923077" y="67.50220356768101" as="sourcePoint" />
            <mxPoint x="69.23076923076923" y="67.50220356768101" as="targetPoint" />
          </mxGeometry>
        </mxCell>
        <mxCell id="_Nc8eTW4AAFqFcOwRR8p-198" value="" style="endArrow=none;html=1;rounded=0;" edge="1" parent="_Nc8eTW4AAFqFcOwRR8p-187">
          <mxGeometry width="50" height="50" relative="1" as="geometry">
            <mxPoint x="20.76923076923077" y="75.00244840853446" as="sourcePoint" />
            <mxPoint x="69.23076923076923" y="75.00244840853446" as="targetPoint" />
          </mxGeometry>
        </mxCell>
        <mxCell id="_Nc8eTW4AAFqFcOwRR8p-199" value="" style="endArrow=none;html=1;rounded=0;" edge="1" parent="_Nc8eTW4AAFqFcOwRR8p-187">
          <mxGeometry width="50" height="50" relative="1" as="geometry">
            <mxPoint x="20.76923076923077" y="82.5026932493879" as="sourcePoint" />
            <mxPoint x="69.23076923076923" y="82.5026932493879" as="targetPoint" />
          </mxGeometry>
        </mxCell>
        <mxCell id="_Nc8eTW4AAFqFcOwRR8p-200" value="" style="endArrow=none;html=1;rounded=0;" edge="1" parent="_Nc8eTW4AAFqFcOwRR8p-187">
          <mxGeometry width="50" height="50" relative="1" as="geometry">
            <mxPoint x="20.76923076923077" y="90.00293809024134" as="sourcePoint" />
            <mxPoint x="69.23076923076923" y="90.00293809024134" as="targetPoint" />
          </mxGeometry>
        </mxCell>
        <mxCell id="_Nc8eTW4AAFqFcOwRR8p-201" value="" style="endArrow=none;html=1;rounded=0;" edge="1" parent="_Nc8eTW4AAFqFcOwRR8p-187">
          <mxGeometry width="50" height="50" relative="1" as="geometry">
            <mxPoint x="20.76923076923077" y="97.5031829310948" as="sourcePoint" />
            <mxPoint x="69.23076923076923" y="97.5031829310948" as="targetPoint" />
          </mxGeometry>
        </mxCell>
        <mxCell id="_Nc8eTW4AAFqFcOwRR8p-202" value="" style="endArrow=none;html=1;rounded=0;" edge="1" parent="_Nc8eTW4AAFqFcOwRR8p-187">
          <mxGeometry width="50" height="50" relative="1" as="geometry">
            <mxPoint x="20.76923076923077" y="105.00342777194824" as="sourcePoint" />
            <mxPoint x="69.23076923076923" y="105.00342777194824" as="targetPoint" />
          </mxGeometry>
        </mxCell>
        <mxCell id="_Nc8eTW4AAFqFcOwRR8p-203" value="" style="endArrow=none;html=1;rounded=0;" edge="1" parent="_Nc8eTW4AAFqFcOwRR8p-187">
          <mxGeometry width="50" height="50" relative="1" as="geometry">
            <mxPoint x="20.76923076923077" y="112.5036726128017" as="sourcePoint" />
            <mxPoint x="69.23076923076923" y="112.5036726128017" as="targetPoint" />
          </mxGeometry>
        </mxCell>
        <mxCell id="_Nc8eTW4AAFqFcOwRR8p-204" value="" style="endArrow=none;html=1;rounded=0;" edge="1" parent="_Nc8eTW4AAFqFcOwRR8p-187">
          <mxGeometry width="50" height="50" relative="1" as="geometry">
            <mxPoint x="20.76923076923077" y="120.00391745365513" as="sourcePoint" />
            <mxPoint x="69.23076923076923" y="120.00391745365513" as="targetPoint" />
          </mxGeometry>
        </mxCell>
        <mxCell id="_Nc8eTW4AAFqFcOwRR8p-205" value="" style="endArrow=none;html=1;rounded=0;" edge="1" parent="_Nc8eTW4AAFqFcOwRR8p-187">
          <mxGeometry width="50" height="50" relative="1" as="geometry">
            <mxPoint x="20.76923076923077" y="127.50416229450857" as="sourcePoint" />
            <mxPoint x="69.23076923076923" y="127.50416229450857" as="targetPoint" />
          </mxGeometry>
        </mxCell>
        <mxCell id="_Nc8eTW4AAFqFcOwRR8p-206" value="" style="endArrow=none;html=1;rounded=0;" edge="1" parent="_Nc8eTW4AAFqFcOwRR8p-187">
          <mxGeometry width="50" height="50" relative="1" as="geometry">
            <mxPoint x="20.76923076923077" y="135.00440713536202" as="sourcePoint" />
            <mxPoint x="69.23076923076923" y="135.00440713536202" as="targetPoint" />
          </mxGeometry>
        </mxCell>
        <mxCell id="_Nc8eTW4AAFqFcOwRR8p-207" value="" style="endArrow=none;html=1;rounded=0;" edge="1" parent="_Nc8eTW4AAFqFcOwRR8p-187">
          <mxGeometry width="50" height="50" relative="1" as="geometry">
            <mxPoint x="20.76923076923077" y="142.50465197621546" as="sourcePoint" />
            <mxPoint x="69.23076923076923" y="142.50465197621546" as="targetPoint" />
          </mxGeometry>
        </mxCell>
        <mxCell id="_Nc8eTW4AAFqFcOwRR8p-208" value="" style="endArrow=none;html=1;rounded=0;strokeWidth=4;" edge="1" parent="_Nc8eTW4AAFqFcOwRR8p-187">
          <mxGeometry width="50" height="50" relative="1" as="geometry">
            <mxPoint x="34.61538461538461" as="sourcePoint" />
            <mxPoint x="55.38461538461539" as="targetPoint" />
          </mxGeometry>
        </mxCell>
        <mxCell id="_Nc8eTW4AAFqFcOwRR8p-209" value="" style="endArrow=none;html=1;rounded=0;strokeWidth=4;" edge="1" parent="_Nc8eTW4AAFqFcOwRR8p-187">
          <mxGeometry width="50" height="50" relative="1" as="geometry">
            <mxPoint x="69.23076923076923" y="22.500734522560336" as="sourcePoint" />
            <mxPoint x="55.38461538461539" as="targetPoint" />
          </mxGeometry>
        </mxCell>
        <mxCell id="_Nc8eTW4AAFqFcOwRR8p-210" value="" style="endArrow=none;html=1;rounded=0;strokeWidth=4;" edge="1" parent="_Nc8eTW4AAFqFcOwRR8p-187">
          <mxGeometry width="50" height="50" relative="1" as="geometry">
            <mxPoint x="20.76923076923077" y="22.500734522560336" as="sourcePoint" />
            <mxPoint x="34.61538461538461" as="targetPoint" />
          </mxGeometry>
        </mxCell>
        <mxCell id="_Nc8eTW4AAFqFcOwRR8p-211" value="" style="endArrow=none;html=1;rounded=0;strokeWidth=9;" edge="1" parent="_Nc8eTW4AAFqFcOwRR8p-187">
          <mxGeometry width="50" height="50" relative="1" as="geometry">
            <mxPoint y="22.500734522560336" as="sourcePoint" />
            <mxPoint x="90" y="22.500734522560336" as="targetPoint" />
          </mxGeometry>
        </mxCell>
        <mxCell id="_Nc8eTW4AAFqFcOwRR8p-212" value="" style="endArrow=none;html=1;rounded=0;" edge="1" parent="_Nc8eTW4AAFqFcOwRR8p-187">
          <mxGeometry width="50" height="50" relative="1" as="geometry">
            <mxPoint x="27.692307692307693" y="11.250367261280168" as="sourcePoint" />
            <mxPoint x="62.30769230769231" y="11.250367261280168" as="targetPoint" />
          </mxGeometry>
        </mxCell>
        <mxCell id="_Nc8eTW4AAFqFcOwRR8p-213" value="" style="group" vertex="1" connectable="0" parent="_Nc8eTW4AAFqFcOwRR8p-187">
          <mxGeometry x="20.772692307692306" y="142.50840209863597" width="49.15384615384616" height="125.53159790136414" as="geometry" />
        </mxCell>
        <mxCell id="_Nc8eTW4AAFqFcOwRR8p-214" value="" style="rounded=0;whiteSpace=wrap;html=1;rotation=90;" vertex="1" parent="_Nc8eTW4AAFqFcOwRR8p-213">
          <mxGeometry x="-33.35884615384616" y="30.40982287662664" width="115.87153846153848" height="53.25173837005946" as="geometry" />
        </mxCell>
        <mxCell id="_Nc8eTW4AAFqFcOwRR8p-215" value="" style="rounded=0;whiteSpace=wrap;html=1;" vertex="1" parent="_Nc8eTW4AAFqFcOwRR8p-213">
          <mxGeometry x="3.6657692307692358" y="2.6588367960825474" width="41.822307692307696" height="14.092960055963623" as="geometry" />
        </mxCell>
        <mxCell id="_Nc8eTW4AAFqFcOwRR8p-216" value="" style="rounded=0;whiteSpace=wrap;html=1;" vertex="1" parent="_Nc8eTW4AAFqFcOwRR8p-213">
          <mxGeometry x="3.6657692307692358" y="22.046969709688707" width="41.822307692307696" height="14.092960055963623" as="geometry" />
        </mxCell>
        <mxCell id="_Nc8eTW4AAFqFcOwRR8p-217" value="" style="rounded=0;whiteSpace=wrap;html=1;" vertex="1" parent="_Nc8eTW4AAFqFcOwRR8p-213">
          <mxGeometry x="3.665769230769228" y="40.16006100034978" width="41.822307692307696" height="14.092960055963623" as="geometry" />
        </mxCell>
        <mxCell id="_Nc8eTW4AAFqFcOwRR8p-218" value="" style="rounded=0;whiteSpace=wrap;html=1;" vertex="1" parent="_Nc8eTW4AAFqFcOwRR8p-213">
          <mxGeometry x="3.665769230769228" y="59.54819391395586" width="41.822307692307696" height="14.092960055963623" as="geometry" />
        </mxCell>
        <mxCell id="_Nc8eTW4AAFqFcOwRR8p-219" value="" style="rounded=0;whiteSpace=wrap;html=1;" vertex="1" parent="_Nc8eTW4AAFqFcOwRR8p-213">
          <mxGeometry x="3.665769230769228" y="77.93129401888766" width="41.822307692307696" height="14.092960055963623" as="geometry" />
        </mxCell>
        <mxCell id="_Nc8eTW4AAFqFcOwRR8p-220" value="" style="rounded=0;whiteSpace=wrap;html=1;" vertex="1" parent="_Nc8eTW4AAFqFcOwRR8p-213">
          <mxGeometry x="3.665769230769228" y="97.31942693249376" width="41.822307692307696" height="14.092960055963623" as="geometry" />
        </mxCell>
        <mxCell id="_Nc8eTW4AAFqFcOwRR8p-363" value="" style="rounded=0;whiteSpace=wrap;html=1;" vertex="1" parent="_Nc8eTW4AAFqFcOwRR8p-21">
          <mxGeometry x="460" y="365" width="110" height="75" as="geometry" />
        </mxCell>
        <mxCell id="_Nc8eTW4AAFqFcOwRR8p-27" value="" style="group;rotation=90;" vertex="1" connectable="0" parent="1">
          <mxGeometry x="-169.9999999999991" y="804.997272727273" width="1030" height="45" as="geometry" />
        </mxCell>
        <mxCell id="_Nc8eTW4AAFqFcOwRR8p-28" value="" style="endArrow=block;startArrow=block;html=1;rounded=0;endSize=12;strokeWidth=2;startSize=12;startFill=1;endFill=1;sourcePerimeterSpacing=17;" edge="1" parent="_Nc8eTW4AAFqFcOwRR8p-27">
          <mxGeometry width="50" height="50" relative="1" as="geometry">
            <mxPoint x="556" y="312.18750000000534" as="sourcePoint" />
            <mxPoint x="556" y="-267.18750000000455" as="targetPoint" />
          </mxGeometry>
        </mxCell>
        <mxCell id="_Nc8eTW4AAFqFcOwRR8p-29" value="" style="endArrow=block;startArrow=block;html=1;rounded=0;endSize=12;strokeWidth=2;startSize=12;startFill=1;endFill=1;sourcePerimeterSpacing=17;" edge="1" parent="_Nc8eTW4AAFqFcOwRR8p-27">
          <mxGeometry width="50" height="50" relative="1" as="geometry">
            <mxPoint x="535" y="312.18750000000534" as="sourcePoint" />
            <mxPoint x="535" y="-267.18750000000455" as="targetPoint" />
          </mxGeometry>
        </mxCell>
        <mxCell id="_Nc8eTW4AAFqFcOwRR8p-30" value="" style="endArrow=block;startArrow=block;html=1;rounded=0;endSize=12;strokeWidth=2;startSize=12;startFill=1;endFill=1;sourcePerimeterSpacing=17;" edge="1" parent="_Nc8eTW4AAFqFcOwRR8p-27">
          <mxGeometry width="50" height="50" relative="1" as="geometry">
            <mxPoint x="515" y="312.18750000000534" as="sourcePoint" />
            <mxPoint x="515" y="-267.18750000000455" as="targetPoint" />
          </mxGeometry>
        </mxCell>
        <mxCell id="_Nc8eTW4AAFqFcOwRR8p-31" value="" style="endArrow=block;startArrow=block;html=1;rounded=0;endSize=12;strokeWidth=2;startSize=12;startFill=1;endFill=1;sourcePerimeterSpacing=17;" edge="1" parent="_Nc8eTW4AAFqFcOwRR8p-27">
          <mxGeometry width="50" height="50" relative="1" as="geometry">
            <mxPoint x="495" y="312.18750000000534" as="sourcePoint" />
            <mxPoint x="495" y="-267.18750000000455" as="targetPoint" />
          </mxGeometry>
        </mxCell>
        <mxCell id="_Nc8eTW4AAFqFcOwRR8p-32" value="" style="endArrow=block;startArrow=block;html=1;rounded=0;endSize=12;strokeWidth=2;startSize=12;startFill=1;endFill=1;sourcePerimeterSpacing=17;" edge="1" parent="_Nc8eTW4AAFqFcOwRR8p-27">
          <mxGeometry width="50" height="50" relative="1" as="geometry">
            <mxPoint x="475" y="312.18750000000534" as="sourcePoint" />
            <mxPoint x="475" y="-267.18750000000455" as="targetPoint" />
          </mxGeometry>
        </mxCell>
        <mxCell id="_Nc8eTW4AAFqFcOwRR8p-221" value="" style="group;aspect=fixed;" vertex="1" connectable="0" parent="_Nc8eTW4AAFqFcOwRR8p-27">
          <mxGeometry x="459.9999999999991" y="-414.99727272727296" width="90" height="268.04" as="geometry" />
        </mxCell>
        <mxCell id="_Nc8eTW4AAFqFcOwRR8p-222" value="" style="endArrow=none;html=1;rounded=0;strokeWidth=4;" edge="1" parent="_Nc8eTW4AAFqFcOwRR8p-221">
          <mxGeometry width="50" height="50" relative="1" as="geometry">
            <mxPoint x="20.76923076923077" y="142.50465197621546" as="sourcePoint" />
            <mxPoint x="20.76923076923077" y="22.500734522560336" as="targetPoint" />
          </mxGeometry>
        </mxCell>
        <mxCell id="_Nc8eTW4AAFqFcOwRR8p-223" value="" style="endArrow=none;html=1;rounded=0;strokeWidth=4;" edge="1" parent="_Nc8eTW4AAFqFcOwRR8p-221">
          <mxGeometry width="50" height="50" relative="1" as="geometry">
            <mxPoint x="69.23076923076923" y="142.50465197621546" as="sourcePoint" />
            <mxPoint x="69.23076923076923" y="22.500734522560336" as="targetPoint" />
          </mxGeometry>
        </mxCell>
        <mxCell id="_Nc8eTW4AAFqFcOwRR8p-224" value="" style="endArrow=none;html=1;rounded=0;" edge="1" parent="_Nc8eTW4AAFqFcOwRR8p-221">
          <mxGeometry width="50" height="50" relative="1" as="geometry">
            <mxPoint x="45" y="142.50465197621546" as="sourcePoint" />
            <mxPoint x="45" as="targetPoint" />
          </mxGeometry>
        </mxCell>
        <mxCell id="_Nc8eTW4AAFqFcOwRR8p-225" value="" style="endArrow=none;html=1;rounded=0;" edge="1" parent="_Nc8eTW4AAFqFcOwRR8p-221">
          <mxGeometry width="50" height="50" relative="1" as="geometry">
            <mxPoint x="20.76923076923077" y="30.000979363413784" as="sourcePoint" />
            <mxPoint x="69.23076923076923" y="30.000979363413784" as="targetPoint" />
          </mxGeometry>
        </mxCell>
        <mxCell id="_Nc8eTW4AAFqFcOwRR8p-226" value="" style="endArrow=none;html=1;rounded=0;" edge="1" parent="_Nc8eTW4AAFqFcOwRR8p-221">
          <mxGeometry width="50" height="50" relative="1" as="geometry">
            <mxPoint x="20.76923076923077" y="37.50122420426723" as="sourcePoint" />
            <mxPoint x="69.23076923076923" y="37.50122420426723" as="targetPoint" />
          </mxGeometry>
        </mxCell>
        <mxCell id="_Nc8eTW4AAFqFcOwRR8p-227" value="" style="endArrow=none;html=1;rounded=0;" edge="1" parent="_Nc8eTW4AAFqFcOwRR8p-221">
          <mxGeometry width="50" height="50" relative="1" as="geometry">
            <mxPoint x="20.76923076923077" y="45.00146904512067" as="sourcePoint" />
            <mxPoint x="69.23076923076923" y="45.00146904512067" as="targetPoint" />
          </mxGeometry>
        </mxCell>
        <mxCell id="_Nc8eTW4AAFqFcOwRR8p-228" value="" style="endArrow=none;html=1;rounded=0;" edge="1" parent="_Nc8eTW4AAFqFcOwRR8p-221">
          <mxGeometry width="50" height="50" relative="1" as="geometry">
            <mxPoint x="20.76923076923077" y="52.50171388597412" as="sourcePoint" />
            <mxPoint x="69.23076923076923" y="52.50171388597412" as="targetPoint" />
          </mxGeometry>
        </mxCell>
        <mxCell id="_Nc8eTW4AAFqFcOwRR8p-229" value="" style="endArrow=none;html=1;rounded=0;" edge="1" parent="_Nc8eTW4AAFqFcOwRR8p-221">
          <mxGeometry width="50" height="50" relative="1" as="geometry">
            <mxPoint x="20.76923076923077" y="60.00195872682757" as="sourcePoint" />
            <mxPoint x="69.23076923076923" y="60.00195872682757" as="targetPoint" />
          </mxGeometry>
        </mxCell>
        <mxCell id="_Nc8eTW4AAFqFcOwRR8p-230" value="" style="endArrow=none;html=1;rounded=0;" edge="1" parent="_Nc8eTW4AAFqFcOwRR8p-221">
          <mxGeometry width="50" height="50" relative="1" as="geometry">
            <mxPoint x="20.76923076923077" y="67.50220356768101" as="sourcePoint" />
            <mxPoint x="69.23076923076923" y="67.50220356768101" as="targetPoint" />
          </mxGeometry>
        </mxCell>
        <mxCell id="_Nc8eTW4AAFqFcOwRR8p-231" value="" style="endArrow=none;html=1;rounded=0;" edge="1" parent="_Nc8eTW4AAFqFcOwRR8p-221">
          <mxGeometry width="50" height="50" relative="1" as="geometry">
            <mxPoint x="20.76923076923077" y="67.50220356768101" as="sourcePoint" />
            <mxPoint x="69.23076923076923" y="67.50220356768101" as="targetPoint" />
          </mxGeometry>
        </mxCell>
        <mxCell id="_Nc8eTW4AAFqFcOwRR8p-232" value="" style="endArrow=none;html=1;rounded=0;" edge="1" parent="_Nc8eTW4AAFqFcOwRR8p-221">
          <mxGeometry width="50" height="50" relative="1" as="geometry">
            <mxPoint x="20.76923076923077" y="75.00244840853446" as="sourcePoint" />
            <mxPoint x="69.23076923076923" y="75.00244840853446" as="targetPoint" />
          </mxGeometry>
        </mxCell>
        <mxCell id="_Nc8eTW4AAFqFcOwRR8p-233" value="" style="endArrow=none;html=1;rounded=0;" edge="1" parent="_Nc8eTW4AAFqFcOwRR8p-221">
          <mxGeometry width="50" height="50" relative="1" as="geometry">
            <mxPoint x="20.76923076923077" y="82.5026932493879" as="sourcePoint" />
            <mxPoint x="69.23076923076923" y="82.5026932493879" as="targetPoint" />
          </mxGeometry>
        </mxCell>
        <mxCell id="_Nc8eTW4AAFqFcOwRR8p-234" value="" style="endArrow=none;html=1;rounded=0;" edge="1" parent="_Nc8eTW4AAFqFcOwRR8p-221">
          <mxGeometry width="50" height="50" relative="1" as="geometry">
            <mxPoint x="20.76923076923077" y="90.00293809024134" as="sourcePoint" />
            <mxPoint x="69.23076923076923" y="90.00293809024134" as="targetPoint" />
          </mxGeometry>
        </mxCell>
        <mxCell id="_Nc8eTW4AAFqFcOwRR8p-235" value="" style="endArrow=none;html=1;rounded=0;" edge="1" parent="_Nc8eTW4AAFqFcOwRR8p-221">
          <mxGeometry width="50" height="50" relative="1" as="geometry">
            <mxPoint x="20.76923076923077" y="97.5031829310948" as="sourcePoint" />
            <mxPoint x="69.23076923076923" y="97.5031829310948" as="targetPoint" />
          </mxGeometry>
        </mxCell>
        <mxCell id="_Nc8eTW4AAFqFcOwRR8p-236" value="" style="endArrow=none;html=1;rounded=0;" edge="1" parent="_Nc8eTW4AAFqFcOwRR8p-221">
          <mxGeometry width="50" height="50" relative="1" as="geometry">
            <mxPoint x="20.76923076923077" y="105.00342777194824" as="sourcePoint" />
            <mxPoint x="69.23076923076923" y="105.00342777194824" as="targetPoint" />
          </mxGeometry>
        </mxCell>
        <mxCell id="_Nc8eTW4AAFqFcOwRR8p-237" value="" style="endArrow=none;html=1;rounded=0;" edge="1" parent="_Nc8eTW4AAFqFcOwRR8p-221">
          <mxGeometry width="50" height="50" relative="1" as="geometry">
            <mxPoint x="20.76923076923077" y="112.5036726128017" as="sourcePoint" />
            <mxPoint x="69.23076923076923" y="112.5036726128017" as="targetPoint" />
          </mxGeometry>
        </mxCell>
        <mxCell id="_Nc8eTW4AAFqFcOwRR8p-238" value="" style="endArrow=none;html=1;rounded=0;" edge="1" parent="_Nc8eTW4AAFqFcOwRR8p-221">
          <mxGeometry width="50" height="50" relative="1" as="geometry">
            <mxPoint x="20.76923076923077" y="120.00391745365513" as="sourcePoint" />
            <mxPoint x="69.23076923076923" y="120.00391745365513" as="targetPoint" />
          </mxGeometry>
        </mxCell>
        <mxCell id="_Nc8eTW4AAFqFcOwRR8p-239" value="" style="endArrow=none;html=1;rounded=0;" edge="1" parent="_Nc8eTW4AAFqFcOwRR8p-221">
          <mxGeometry width="50" height="50" relative="1" as="geometry">
            <mxPoint x="20.76923076923077" y="127.50416229450857" as="sourcePoint" />
            <mxPoint x="69.23076923076923" y="127.50416229450857" as="targetPoint" />
          </mxGeometry>
        </mxCell>
        <mxCell id="_Nc8eTW4AAFqFcOwRR8p-240" value="" style="endArrow=none;html=1;rounded=0;" edge="1" parent="_Nc8eTW4AAFqFcOwRR8p-221">
          <mxGeometry width="50" height="50" relative="1" as="geometry">
            <mxPoint x="20.76923076923077" y="135.00440713536202" as="sourcePoint" />
            <mxPoint x="69.23076923076923" y="135.00440713536202" as="targetPoint" />
          </mxGeometry>
        </mxCell>
        <mxCell id="_Nc8eTW4AAFqFcOwRR8p-241" value="" style="endArrow=none;html=1;rounded=0;" edge="1" parent="_Nc8eTW4AAFqFcOwRR8p-221">
          <mxGeometry width="50" height="50" relative="1" as="geometry">
            <mxPoint x="20.76923076923077" y="142.50465197621546" as="sourcePoint" />
            <mxPoint x="69.23076923076923" y="142.50465197621546" as="targetPoint" />
          </mxGeometry>
        </mxCell>
        <mxCell id="_Nc8eTW4AAFqFcOwRR8p-242" value="" style="endArrow=none;html=1;rounded=0;strokeWidth=4;" edge="1" parent="_Nc8eTW4AAFqFcOwRR8p-221">
          <mxGeometry width="50" height="50" relative="1" as="geometry">
            <mxPoint x="34.61538461538461" as="sourcePoint" />
            <mxPoint x="55.38461538461539" as="targetPoint" />
          </mxGeometry>
        </mxCell>
        <mxCell id="_Nc8eTW4AAFqFcOwRR8p-243" value="" style="endArrow=none;html=1;rounded=0;strokeWidth=4;" edge="1" parent="_Nc8eTW4AAFqFcOwRR8p-221">
          <mxGeometry width="50" height="50" relative="1" as="geometry">
            <mxPoint x="69.23076923076923" y="22.500734522560336" as="sourcePoint" />
            <mxPoint x="55.38461538461539" as="targetPoint" />
          </mxGeometry>
        </mxCell>
        <mxCell id="_Nc8eTW4AAFqFcOwRR8p-244" value="" style="endArrow=none;html=1;rounded=0;strokeWidth=4;" edge="1" parent="_Nc8eTW4AAFqFcOwRR8p-221">
          <mxGeometry width="50" height="50" relative="1" as="geometry">
            <mxPoint x="20.76923076923077" y="22.500734522560336" as="sourcePoint" />
            <mxPoint x="34.61538461538461" as="targetPoint" />
          </mxGeometry>
        </mxCell>
        <mxCell id="_Nc8eTW4AAFqFcOwRR8p-245" value="" style="endArrow=none;html=1;rounded=0;strokeWidth=9;" edge="1" parent="_Nc8eTW4AAFqFcOwRR8p-221">
          <mxGeometry width="50" height="50" relative="1" as="geometry">
            <mxPoint y="22.500734522560336" as="sourcePoint" />
            <mxPoint x="90" y="22.500734522560336" as="targetPoint" />
          </mxGeometry>
        </mxCell>
        <mxCell id="_Nc8eTW4AAFqFcOwRR8p-246" value="" style="endArrow=none;html=1;rounded=0;" edge="1" parent="_Nc8eTW4AAFqFcOwRR8p-221">
          <mxGeometry width="50" height="50" relative="1" as="geometry">
            <mxPoint x="27.692307692307693" y="11.250367261280168" as="sourcePoint" />
            <mxPoint x="62.30769230769231" y="11.250367261280168" as="targetPoint" />
          </mxGeometry>
        </mxCell>
        <mxCell id="_Nc8eTW4AAFqFcOwRR8p-247" value="" style="group" vertex="1" connectable="0" parent="_Nc8eTW4AAFqFcOwRR8p-221">
          <mxGeometry x="20.772692307692306" y="142.50840209863597" width="49.15384615384616" height="125.53159790136414" as="geometry" />
        </mxCell>
        <mxCell id="_Nc8eTW4AAFqFcOwRR8p-248" value="" style="rounded=0;whiteSpace=wrap;html=1;rotation=90;" vertex="1" parent="_Nc8eTW4AAFqFcOwRR8p-247">
          <mxGeometry x="-33.35884615384616" y="30.40982287662664" width="115.87153846153848" height="53.25173837005946" as="geometry" />
        </mxCell>
        <mxCell id="_Nc8eTW4AAFqFcOwRR8p-249" value="" style="rounded=0;whiteSpace=wrap;html=1;" vertex="1" parent="_Nc8eTW4AAFqFcOwRR8p-247">
          <mxGeometry x="3.6657692307692358" y="2.6588367960825474" width="41.822307692307696" height="14.092960055963623" as="geometry" />
        </mxCell>
        <mxCell id="_Nc8eTW4AAFqFcOwRR8p-250" value="" style="rounded=0;whiteSpace=wrap;html=1;" vertex="1" parent="_Nc8eTW4AAFqFcOwRR8p-247">
          <mxGeometry x="3.6657692307692358" y="22.046969709688707" width="41.822307692307696" height="14.092960055963623" as="geometry" />
        </mxCell>
        <mxCell id="_Nc8eTW4AAFqFcOwRR8p-251" value="" style="rounded=0;whiteSpace=wrap;html=1;" vertex="1" parent="_Nc8eTW4AAFqFcOwRR8p-247">
          <mxGeometry x="3.665769230769228" y="40.16006100034978" width="41.822307692307696" height="14.092960055963623" as="geometry" />
        </mxCell>
        <mxCell id="_Nc8eTW4AAFqFcOwRR8p-252" value="" style="rounded=0;whiteSpace=wrap;html=1;" vertex="1" parent="_Nc8eTW4AAFqFcOwRR8p-247">
          <mxGeometry x="3.665769230769228" y="59.54819391395586" width="41.822307692307696" height="14.092960055963623" as="geometry" />
        </mxCell>
        <mxCell id="_Nc8eTW4AAFqFcOwRR8p-253" value="" style="rounded=0;whiteSpace=wrap;html=1;" vertex="1" parent="_Nc8eTW4AAFqFcOwRR8p-247">
          <mxGeometry x="3.665769230769228" y="77.93129401888766" width="41.822307692307696" height="14.092960055963623" as="geometry" />
        </mxCell>
        <mxCell id="_Nc8eTW4AAFqFcOwRR8p-254" value="" style="rounded=0;whiteSpace=wrap;html=1;" vertex="1" parent="_Nc8eTW4AAFqFcOwRR8p-247">
          <mxGeometry x="3.665769230769228" y="97.31942693249376" width="41.822307692307696" height="14.092960055963623" as="geometry" />
        </mxCell>
        <mxCell id="_Nc8eTW4AAFqFcOwRR8p-33" value="" style="group;rotation=90;" vertex="1" connectable="0" parent="1">
          <mxGeometry x="9.094947017729282e-13" y="804.997272727273" width="1030" height="440" as="geometry" />
        </mxCell>
        <mxCell id="_Nc8eTW4AAFqFcOwRR8p-34" value="" style="endArrow=block;startArrow=block;html=1;rounded=0;endSize=12;strokeWidth=2;startSize=12;startFill=1;endFill=1;sourcePerimeterSpacing=17;" edge="1" parent="_Nc8eTW4AAFqFcOwRR8p-33">
          <mxGeometry width="50" height="50" relative="1" as="geometry">
            <mxPoint x="555" y="312.18750000000534" as="sourcePoint" />
            <mxPoint x="555" y="-267.18750000000455" as="targetPoint" />
          </mxGeometry>
        </mxCell>
        <mxCell id="_Nc8eTW4AAFqFcOwRR8p-35" value="" style="endArrow=block;startArrow=block;html=1;rounded=0;endSize=12;strokeWidth=2;startSize=12;startFill=1;endFill=1;sourcePerimeterSpacing=17;" edge="1" parent="_Nc8eTW4AAFqFcOwRR8p-33">
          <mxGeometry width="50" height="50" relative="1" as="geometry">
            <mxPoint x="535" y="312.18750000000534" as="sourcePoint" />
            <mxPoint x="535" y="-267.18750000000455" as="targetPoint" />
          </mxGeometry>
        </mxCell>
        <mxCell id="_Nc8eTW4AAFqFcOwRR8p-36" value="" style="endArrow=block;startArrow=block;html=1;rounded=0;endSize=12;strokeWidth=2;startSize=12;startFill=1;endFill=1;sourcePerimeterSpacing=17;" edge="1" parent="_Nc8eTW4AAFqFcOwRR8p-33">
          <mxGeometry width="50" height="50" relative="1" as="geometry">
            <mxPoint x="515" y="312.18750000000534" as="sourcePoint" />
            <mxPoint x="515" y="-267.18750000000455" as="targetPoint" />
          </mxGeometry>
        </mxCell>
        <mxCell id="_Nc8eTW4AAFqFcOwRR8p-37" value="" style="endArrow=block;startArrow=block;html=1;rounded=0;endSize=12;strokeWidth=2;startSize=12;startFill=1;endFill=1;sourcePerimeterSpacing=17;" edge="1" parent="_Nc8eTW4AAFqFcOwRR8p-33">
          <mxGeometry width="50" height="50" relative="1" as="geometry">
            <mxPoint x="495" y="312.18750000000534" as="sourcePoint" />
            <mxPoint x="495" y="-267.18750000000455" as="targetPoint" />
          </mxGeometry>
        </mxCell>
        <mxCell id="_Nc8eTW4AAFqFcOwRR8p-38" value="" style="endArrow=block;startArrow=block;html=1;rounded=0;endSize=12;strokeWidth=2;startSize=12;startFill=1;endFill=1;sourcePerimeterSpacing=17;" edge="1" parent="_Nc8eTW4AAFqFcOwRR8p-33">
          <mxGeometry width="50" height="50" relative="1" as="geometry">
            <mxPoint x="475" y="312.18750000000534" as="sourcePoint" />
            <mxPoint x="475" y="-267.18750000000455" as="targetPoint" />
          </mxGeometry>
        </mxCell>
        <mxCell id="_Nc8eTW4AAFqFcOwRR8p-255" value="" style="group;aspect=fixed;" vertex="1" connectable="0" parent="_Nc8eTW4AAFqFcOwRR8p-33">
          <mxGeometry x="449.9999999999991" y="-414.99727272727296" width="90" height="268.04" as="geometry" />
        </mxCell>
        <mxCell id="_Nc8eTW4AAFqFcOwRR8p-256" value="" style="endArrow=none;html=1;rounded=0;strokeWidth=4;" edge="1" parent="_Nc8eTW4AAFqFcOwRR8p-255">
          <mxGeometry width="50" height="50" relative="1" as="geometry">
            <mxPoint x="20.76923076923077" y="142.50465197621546" as="sourcePoint" />
            <mxPoint x="20.76923076923077" y="22.500734522560336" as="targetPoint" />
          </mxGeometry>
        </mxCell>
        <mxCell id="_Nc8eTW4AAFqFcOwRR8p-257" value="" style="endArrow=none;html=1;rounded=0;strokeWidth=4;" edge="1" parent="_Nc8eTW4AAFqFcOwRR8p-255">
          <mxGeometry width="50" height="50" relative="1" as="geometry">
            <mxPoint x="69.23076923076923" y="142.50465197621546" as="sourcePoint" />
            <mxPoint x="69.23076923076923" y="22.500734522560336" as="targetPoint" />
          </mxGeometry>
        </mxCell>
        <mxCell id="_Nc8eTW4AAFqFcOwRR8p-258" value="" style="endArrow=none;html=1;rounded=0;" edge="1" parent="_Nc8eTW4AAFqFcOwRR8p-255">
          <mxGeometry width="50" height="50" relative="1" as="geometry">
            <mxPoint x="45" y="142.50465197621546" as="sourcePoint" />
            <mxPoint x="45" as="targetPoint" />
          </mxGeometry>
        </mxCell>
        <mxCell id="_Nc8eTW4AAFqFcOwRR8p-259" value="" style="endArrow=none;html=1;rounded=0;" edge="1" parent="_Nc8eTW4AAFqFcOwRR8p-255">
          <mxGeometry width="50" height="50" relative="1" as="geometry">
            <mxPoint x="20.76923076923077" y="30.000979363413784" as="sourcePoint" />
            <mxPoint x="69.23076923076923" y="30.000979363413784" as="targetPoint" />
          </mxGeometry>
        </mxCell>
        <mxCell id="_Nc8eTW4AAFqFcOwRR8p-260" value="" style="endArrow=none;html=1;rounded=0;" edge="1" parent="_Nc8eTW4AAFqFcOwRR8p-255">
          <mxGeometry width="50" height="50" relative="1" as="geometry">
            <mxPoint x="20.76923076923077" y="37.50122420426723" as="sourcePoint" />
            <mxPoint x="69.23076923076923" y="37.50122420426723" as="targetPoint" />
          </mxGeometry>
        </mxCell>
        <mxCell id="_Nc8eTW4AAFqFcOwRR8p-261" value="" style="endArrow=none;html=1;rounded=0;" edge="1" parent="_Nc8eTW4AAFqFcOwRR8p-255">
          <mxGeometry width="50" height="50" relative="1" as="geometry">
            <mxPoint x="20.76923076923077" y="45.00146904512067" as="sourcePoint" />
            <mxPoint x="69.23076923076923" y="45.00146904512067" as="targetPoint" />
          </mxGeometry>
        </mxCell>
        <mxCell id="_Nc8eTW4AAFqFcOwRR8p-262" value="" style="endArrow=none;html=1;rounded=0;" edge="1" parent="_Nc8eTW4AAFqFcOwRR8p-255">
          <mxGeometry width="50" height="50" relative="1" as="geometry">
            <mxPoint x="20.76923076923077" y="52.50171388597412" as="sourcePoint" />
            <mxPoint x="69.23076923076923" y="52.50171388597412" as="targetPoint" />
          </mxGeometry>
        </mxCell>
        <mxCell id="_Nc8eTW4AAFqFcOwRR8p-263" value="" style="endArrow=none;html=1;rounded=0;" edge="1" parent="_Nc8eTW4AAFqFcOwRR8p-255">
          <mxGeometry width="50" height="50" relative="1" as="geometry">
            <mxPoint x="20.76923076923077" y="60.00195872682757" as="sourcePoint" />
            <mxPoint x="69.23076923076923" y="60.00195872682757" as="targetPoint" />
          </mxGeometry>
        </mxCell>
        <mxCell id="_Nc8eTW4AAFqFcOwRR8p-264" value="" style="endArrow=none;html=1;rounded=0;" edge="1" parent="_Nc8eTW4AAFqFcOwRR8p-255">
          <mxGeometry width="50" height="50" relative="1" as="geometry">
            <mxPoint x="20.76923076923077" y="67.50220356768101" as="sourcePoint" />
            <mxPoint x="69.23076923076923" y="67.50220356768101" as="targetPoint" />
          </mxGeometry>
        </mxCell>
        <mxCell id="_Nc8eTW4AAFqFcOwRR8p-265" value="" style="endArrow=none;html=1;rounded=0;" edge="1" parent="_Nc8eTW4AAFqFcOwRR8p-255">
          <mxGeometry width="50" height="50" relative="1" as="geometry">
            <mxPoint x="20.76923076923077" y="67.50220356768101" as="sourcePoint" />
            <mxPoint x="69.23076923076923" y="67.50220356768101" as="targetPoint" />
          </mxGeometry>
        </mxCell>
        <mxCell id="_Nc8eTW4AAFqFcOwRR8p-266" value="" style="endArrow=none;html=1;rounded=0;" edge="1" parent="_Nc8eTW4AAFqFcOwRR8p-255">
          <mxGeometry width="50" height="50" relative="1" as="geometry">
            <mxPoint x="20.76923076923077" y="75.00244840853446" as="sourcePoint" />
            <mxPoint x="69.23076923076923" y="75.00244840853446" as="targetPoint" />
          </mxGeometry>
        </mxCell>
        <mxCell id="_Nc8eTW4AAFqFcOwRR8p-267" value="" style="endArrow=none;html=1;rounded=0;" edge="1" parent="_Nc8eTW4AAFqFcOwRR8p-255">
          <mxGeometry width="50" height="50" relative="1" as="geometry">
            <mxPoint x="20.76923076923077" y="82.5026932493879" as="sourcePoint" />
            <mxPoint x="69.23076923076923" y="82.5026932493879" as="targetPoint" />
          </mxGeometry>
        </mxCell>
        <mxCell id="_Nc8eTW4AAFqFcOwRR8p-268" value="" style="endArrow=none;html=1;rounded=0;" edge="1" parent="_Nc8eTW4AAFqFcOwRR8p-255">
          <mxGeometry width="50" height="50" relative="1" as="geometry">
            <mxPoint x="20.76923076923077" y="90.00293809024134" as="sourcePoint" />
            <mxPoint x="69.23076923076923" y="90.00293809024134" as="targetPoint" />
          </mxGeometry>
        </mxCell>
        <mxCell id="_Nc8eTW4AAFqFcOwRR8p-269" value="" style="endArrow=none;html=1;rounded=0;" edge="1" parent="_Nc8eTW4AAFqFcOwRR8p-255">
          <mxGeometry width="50" height="50" relative="1" as="geometry">
            <mxPoint x="20.76923076923077" y="97.5031829310948" as="sourcePoint" />
            <mxPoint x="69.23076923076923" y="97.5031829310948" as="targetPoint" />
          </mxGeometry>
        </mxCell>
        <mxCell id="_Nc8eTW4AAFqFcOwRR8p-270" value="" style="endArrow=none;html=1;rounded=0;" edge="1" parent="_Nc8eTW4AAFqFcOwRR8p-255">
          <mxGeometry width="50" height="50" relative="1" as="geometry">
            <mxPoint x="20.76923076923077" y="105.00342777194824" as="sourcePoint" />
            <mxPoint x="69.23076923076923" y="105.00342777194824" as="targetPoint" />
          </mxGeometry>
        </mxCell>
        <mxCell id="_Nc8eTW4AAFqFcOwRR8p-271" value="" style="endArrow=none;html=1;rounded=0;" edge="1" parent="_Nc8eTW4AAFqFcOwRR8p-255">
          <mxGeometry width="50" height="50" relative="1" as="geometry">
            <mxPoint x="20.76923076923077" y="112.5036726128017" as="sourcePoint" />
            <mxPoint x="69.23076923076923" y="112.5036726128017" as="targetPoint" />
          </mxGeometry>
        </mxCell>
        <mxCell id="_Nc8eTW4AAFqFcOwRR8p-272" value="" style="endArrow=none;html=1;rounded=0;" edge="1" parent="_Nc8eTW4AAFqFcOwRR8p-255">
          <mxGeometry width="50" height="50" relative="1" as="geometry">
            <mxPoint x="20.76923076923077" y="120.00391745365513" as="sourcePoint" />
            <mxPoint x="69.23076923076923" y="120.00391745365513" as="targetPoint" />
          </mxGeometry>
        </mxCell>
        <mxCell id="_Nc8eTW4AAFqFcOwRR8p-273" value="" style="endArrow=none;html=1;rounded=0;" edge="1" parent="_Nc8eTW4AAFqFcOwRR8p-255">
          <mxGeometry width="50" height="50" relative="1" as="geometry">
            <mxPoint x="20.76923076923077" y="127.50416229450857" as="sourcePoint" />
            <mxPoint x="69.23076923076923" y="127.50416229450857" as="targetPoint" />
          </mxGeometry>
        </mxCell>
        <mxCell id="_Nc8eTW4AAFqFcOwRR8p-274" value="" style="endArrow=none;html=1;rounded=0;" edge="1" parent="_Nc8eTW4AAFqFcOwRR8p-255">
          <mxGeometry width="50" height="50" relative="1" as="geometry">
            <mxPoint x="20.76923076923077" y="135.00440713536202" as="sourcePoint" />
            <mxPoint x="69.23076923076923" y="135.00440713536202" as="targetPoint" />
          </mxGeometry>
        </mxCell>
        <mxCell id="_Nc8eTW4AAFqFcOwRR8p-275" value="" style="endArrow=none;html=1;rounded=0;" edge="1" parent="_Nc8eTW4AAFqFcOwRR8p-255">
          <mxGeometry width="50" height="50" relative="1" as="geometry">
            <mxPoint x="20.76923076923077" y="142.50465197621546" as="sourcePoint" />
            <mxPoint x="69.23076923076923" y="142.50465197621546" as="targetPoint" />
          </mxGeometry>
        </mxCell>
        <mxCell id="_Nc8eTW4AAFqFcOwRR8p-276" value="" style="endArrow=none;html=1;rounded=0;strokeWidth=4;" edge="1" parent="_Nc8eTW4AAFqFcOwRR8p-255">
          <mxGeometry width="50" height="50" relative="1" as="geometry">
            <mxPoint x="34.61538461538461" as="sourcePoint" />
            <mxPoint x="55.38461538461539" as="targetPoint" />
          </mxGeometry>
        </mxCell>
        <mxCell id="_Nc8eTW4AAFqFcOwRR8p-277" value="" style="endArrow=none;html=1;rounded=0;strokeWidth=4;" edge="1" parent="_Nc8eTW4AAFqFcOwRR8p-255">
          <mxGeometry width="50" height="50" relative="1" as="geometry">
            <mxPoint x="69.23076923076923" y="22.500734522560336" as="sourcePoint" />
            <mxPoint x="55.38461538461539" as="targetPoint" />
          </mxGeometry>
        </mxCell>
        <mxCell id="_Nc8eTW4AAFqFcOwRR8p-278" value="" style="endArrow=none;html=1;rounded=0;strokeWidth=4;" edge="1" parent="_Nc8eTW4AAFqFcOwRR8p-255">
          <mxGeometry width="50" height="50" relative="1" as="geometry">
            <mxPoint x="20.76923076923077" y="22.500734522560336" as="sourcePoint" />
            <mxPoint x="34.61538461538461" as="targetPoint" />
          </mxGeometry>
        </mxCell>
        <mxCell id="_Nc8eTW4AAFqFcOwRR8p-279" value="" style="endArrow=none;html=1;rounded=0;strokeWidth=9;" edge="1" parent="_Nc8eTW4AAFqFcOwRR8p-255">
          <mxGeometry width="50" height="50" relative="1" as="geometry">
            <mxPoint y="22.500734522560336" as="sourcePoint" />
            <mxPoint x="90" y="22.500734522560336" as="targetPoint" />
          </mxGeometry>
        </mxCell>
        <mxCell id="_Nc8eTW4AAFqFcOwRR8p-280" value="" style="endArrow=none;html=1;rounded=0;" edge="1" parent="_Nc8eTW4AAFqFcOwRR8p-255">
          <mxGeometry width="50" height="50" relative="1" as="geometry">
            <mxPoint x="27.692307692307693" y="11.250367261280168" as="sourcePoint" />
            <mxPoint x="62.30769230769231" y="11.250367261280168" as="targetPoint" />
          </mxGeometry>
        </mxCell>
        <mxCell id="_Nc8eTW4AAFqFcOwRR8p-281" value="" style="group" vertex="1" connectable="0" parent="_Nc8eTW4AAFqFcOwRR8p-255">
          <mxGeometry x="20.772692307692306" y="142.50840209863597" width="49.15384615384616" height="125.53159790136414" as="geometry" />
        </mxCell>
        <mxCell id="_Nc8eTW4AAFqFcOwRR8p-282" value="" style="rounded=0;whiteSpace=wrap;html=1;rotation=90;" vertex="1" parent="_Nc8eTW4AAFqFcOwRR8p-281">
          <mxGeometry x="-33.35884615384616" y="30.40982287662664" width="115.87153846153848" height="53.25173837005946" as="geometry" />
        </mxCell>
        <mxCell id="_Nc8eTW4AAFqFcOwRR8p-283" value="" style="rounded=0;whiteSpace=wrap;html=1;" vertex="1" parent="_Nc8eTW4AAFqFcOwRR8p-281">
          <mxGeometry x="3.6657692307692358" y="2.6588367960825474" width="41.822307692307696" height="14.092960055963623" as="geometry" />
        </mxCell>
        <mxCell id="_Nc8eTW4AAFqFcOwRR8p-284" value="" style="rounded=0;whiteSpace=wrap;html=1;" vertex="1" parent="_Nc8eTW4AAFqFcOwRR8p-281">
          <mxGeometry x="3.6657692307692358" y="22.046969709688707" width="41.822307692307696" height="14.092960055963623" as="geometry" />
        </mxCell>
        <mxCell id="_Nc8eTW4AAFqFcOwRR8p-285" value="" style="rounded=0;whiteSpace=wrap;html=1;" vertex="1" parent="_Nc8eTW4AAFqFcOwRR8p-281">
          <mxGeometry x="3.665769230769228" y="40.16006100034978" width="41.822307692307696" height="14.092960055963623" as="geometry" />
        </mxCell>
        <mxCell id="_Nc8eTW4AAFqFcOwRR8p-286" value="" style="rounded=0;whiteSpace=wrap;html=1;" vertex="1" parent="_Nc8eTW4AAFqFcOwRR8p-281">
          <mxGeometry x="3.665769230769228" y="59.54819391395586" width="41.822307692307696" height="14.092960055963623" as="geometry" />
        </mxCell>
        <mxCell id="_Nc8eTW4AAFqFcOwRR8p-287" value="" style="rounded=0;whiteSpace=wrap;html=1;" vertex="1" parent="_Nc8eTW4AAFqFcOwRR8p-281">
          <mxGeometry x="3.665769230769228" y="77.93129401888766" width="41.822307692307696" height="14.092960055963623" as="geometry" />
        </mxCell>
        <mxCell id="_Nc8eTW4AAFqFcOwRR8p-288" value="" style="rounded=0;whiteSpace=wrap;html=1;" vertex="1" parent="_Nc8eTW4AAFqFcOwRR8p-281">
          <mxGeometry x="3.665769230769228" y="97.31942693249376" width="41.822307692307696" height="14.092960055963623" as="geometry" />
        </mxCell>
        <mxCell id="_Nc8eTW4AAFqFcOwRR8p-350" value="" style="rounded=0;whiteSpace=wrap;html=1;rotation=90;" vertex="1" parent="_Nc8eTW4AAFqFcOwRR8p-33">
          <mxGeometry x="452" y="335" width="46.25" height="15" as="geometry" />
        </mxCell>
        <mxCell id="_Nc8eTW4AAFqFcOwRR8p-351" value="" style="rounded=0;whiteSpace=wrap;html=1;rotation=90;" vertex="1" parent="_Nc8eTW4AAFqFcOwRR8p-33">
          <mxGeometry x="472" y="335" width="46.25" height="13.75" as="geometry" />
        </mxCell>
        <mxCell id="_Nc8eTW4AAFqFcOwRR8p-352" value="" style="rounded=0;whiteSpace=wrap;html=1;rotation=90;" vertex="1" parent="_Nc8eTW4AAFqFcOwRR8p-33">
          <mxGeometry x="493.87" y="335" width="46.25" height="13.75" as="geometry" />
        </mxCell>
        <mxCell id="_Nc8eTW4AAFqFcOwRR8p-353" value="" style="rounded=0;whiteSpace=wrap;html=1;rotation=90;" vertex="1" parent="_Nc8eTW4AAFqFcOwRR8p-33">
          <mxGeometry x="512" y="335" width="46.25" height="13.75" as="geometry" />
        </mxCell>
        <mxCell id="_Nc8eTW4AAFqFcOwRR8p-354" value="" style="rounded=0;whiteSpace=wrap;html=1;rotation=90;" vertex="1" parent="_Nc8eTW4AAFqFcOwRR8p-33">
          <mxGeometry x="531.75" y="335" width="46.25" height="13.75" as="geometry" />
        </mxCell>
        <mxCell id="_Nc8eTW4AAFqFcOwRR8p-364" value="" style="rounded=0;whiteSpace=wrap;html=1;" vertex="1" parent="_Nc8eTW4AAFqFcOwRR8p-33">
          <mxGeometry x="290" y="365" width="110" height="75" as="geometry" />
        </mxCell>
        <mxCell id="_Nc8eTW4AAFqFcOwRR8p-39" value="" style="group;rotation=90;" vertex="1" connectable="0" parent="1">
          <mxGeometry x="150.0000000000009" y="804.997272727273" width="1030" height="450" as="geometry" />
        </mxCell>
        <mxCell id="_Nc8eTW4AAFqFcOwRR8p-40" value="" style="endArrow=block;startArrow=block;html=1;rounded=0;endSize=12;strokeWidth=2;startSize=12;startFill=1;endFill=1;sourcePerimeterSpacing=17;" edge="1" parent="_Nc8eTW4AAFqFcOwRR8p-39">
          <mxGeometry width="50" height="50" relative="1" as="geometry">
            <mxPoint x="555" y="312.18750000000534" as="sourcePoint" />
            <mxPoint x="555" y="-267.18750000000466" as="targetPoint" />
          </mxGeometry>
        </mxCell>
        <mxCell id="_Nc8eTW4AAFqFcOwRR8p-41" value="" style="endArrow=block;startArrow=block;html=1;rounded=0;endSize=12;strokeWidth=2;startSize=12;startFill=1;endFill=1;sourcePerimeterSpacing=17;" edge="1" parent="_Nc8eTW4AAFqFcOwRR8p-39">
          <mxGeometry width="50" height="50" relative="1" as="geometry">
            <mxPoint x="535" y="312.18750000000534" as="sourcePoint" />
            <mxPoint x="535" y="-267.18750000000466" as="targetPoint" />
          </mxGeometry>
        </mxCell>
        <mxCell id="_Nc8eTW4AAFqFcOwRR8p-42" value="" style="endArrow=block;startArrow=block;html=1;rounded=0;endSize=12;strokeWidth=2;startSize=12;startFill=1;endFill=1;sourcePerimeterSpacing=17;" edge="1" parent="_Nc8eTW4AAFqFcOwRR8p-39">
          <mxGeometry width="50" height="50" relative="1" as="geometry">
            <mxPoint x="515" y="312.18750000000534" as="sourcePoint" />
            <mxPoint x="515" y="-267.18750000000466" as="targetPoint" />
          </mxGeometry>
        </mxCell>
        <mxCell id="_Nc8eTW4AAFqFcOwRR8p-43" value="" style="endArrow=block;startArrow=block;html=1;rounded=0;endSize=12;strokeWidth=2;startSize=12;startFill=1;endFill=1;sourcePerimeterSpacing=17;" edge="1" parent="_Nc8eTW4AAFqFcOwRR8p-39">
          <mxGeometry width="50" height="50" relative="1" as="geometry">
            <mxPoint x="495" y="312.18750000000534" as="sourcePoint" />
            <mxPoint x="495" y="-267.18750000000466" as="targetPoint" />
          </mxGeometry>
        </mxCell>
        <mxCell id="_Nc8eTW4AAFqFcOwRR8p-44" value="" style="endArrow=block;startArrow=block;html=1;rounded=0;endSize=12;strokeWidth=2;startSize=12;startFill=1;endFill=1;sourcePerimeterSpacing=17;" edge="1" parent="_Nc8eTW4AAFqFcOwRR8p-39">
          <mxGeometry width="50" height="50" relative="1" as="geometry">
            <mxPoint x="475" y="312.18750000000534" as="sourcePoint" />
            <mxPoint x="475" y="-267.18750000000466" as="targetPoint" />
          </mxGeometry>
        </mxCell>
        <mxCell id="_Nc8eTW4AAFqFcOwRR8p-289" value="" style="group;aspect=fixed;" vertex="1" connectable="0" parent="_Nc8eTW4AAFqFcOwRR8p-39">
          <mxGeometry x="449.9999999999991" y="-414.99727272727296" width="90" height="268.04" as="geometry" />
        </mxCell>
        <mxCell id="_Nc8eTW4AAFqFcOwRR8p-290" value="" style="endArrow=none;html=1;rounded=0;strokeWidth=4;" edge="1" parent="_Nc8eTW4AAFqFcOwRR8p-289">
          <mxGeometry width="50" height="50" relative="1" as="geometry">
            <mxPoint x="20.76923076923077" y="142.50465197621546" as="sourcePoint" />
            <mxPoint x="20.76923076923077" y="22.500734522560336" as="targetPoint" />
          </mxGeometry>
        </mxCell>
        <mxCell id="_Nc8eTW4AAFqFcOwRR8p-291" value="" style="endArrow=none;html=1;rounded=0;strokeWidth=4;" edge="1" parent="_Nc8eTW4AAFqFcOwRR8p-289">
          <mxGeometry width="50" height="50" relative="1" as="geometry">
            <mxPoint x="69.23076923076923" y="142.50465197621546" as="sourcePoint" />
            <mxPoint x="69.23076923076923" y="22.500734522560336" as="targetPoint" />
          </mxGeometry>
        </mxCell>
        <mxCell id="_Nc8eTW4AAFqFcOwRR8p-292" value="" style="endArrow=none;html=1;rounded=0;" edge="1" parent="_Nc8eTW4AAFqFcOwRR8p-289">
          <mxGeometry width="50" height="50" relative="1" as="geometry">
            <mxPoint x="45" y="142.50465197621546" as="sourcePoint" />
            <mxPoint x="45" as="targetPoint" />
          </mxGeometry>
        </mxCell>
        <mxCell id="_Nc8eTW4AAFqFcOwRR8p-293" value="" style="endArrow=none;html=1;rounded=0;" edge="1" parent="_Nc8eTW4AAFqFcOwRR8p-289">
          <mxGeometry width="50" height="50" relative="1" as="geometry">
            <mxPoint x="20.76923076923077" y="30.000979363413784" as="sourcePoint" />
            <mxPoint x="69.23076923076923" y="30.000979363413784" as="targetPoint" />
          </mxGeometry>
        </mxCell>
        <mxCell id="_Nc8eTW4AAFqFcOwRR8p-294" value="" style="endArrow=none;html=1;rounded=0;" edge="1" parent="_Nc8eTW4AAFqFcOwRR8p-289">
          <mxGeometry width="50" height="50" relative="1" as="geometry">
            <mxPoint x="20.76923076923077" y="37.50122420426723" as="sourcePoint" />
            <mxPoint x="69.23076923076923" y="37.50122420426723" as="targetPoint" />
          </mxGeometry>
        </mxCell>
        <mxCell id="_Nc8eTW4AAFqFcOwRR8p-295" value="" style="endArrow=none;html=1;rounded=0;" edge="1" parent="_Nc8eTW4AAFqFcOwRR8p-289">
          <mxGeometry width="50" height="50" relative="1" as="geometry">
            <mxPoint x="20.76923076923077" y="45.00146904512067" as="sourcePoint" />
            <mxPoint x="69.23076923076923" y="45.00146904512067" as="targetPoint" />
          </mxGeometry>
        </mxCell>
        <mxCell id="_Nc8eTW4AAFqFcOwRR8p-296" value="" style="endArrow=none;html=1;rounded=0;" edge="1" parent="_Nc8eTW4AAFqFcOwRR8p-289">
          <mxGeometry width="50" height="50" relative="1" as="geometry">
            <mxPoint x="20.76923076923077" y="52.50171388597412" as="sourcePoint" />
            <mxPoint x="69.23076923076923" y="52.50171388597412" as="targetPoint" />
          </mxGeometry>
        </mxCell>
        <mxCell id="_Nc8eTW4AAFqFcOwRR8p-297" value="" style="endArrow=none;html=1;rounded=0;" edge="1" parent="_Nc8eTW4AAFqFcOwRR8p-289">
          <mxGeometry width="50" height="50" relative="1" as="geometry">
            <mxPoint x="20.76923076923077" y="60.00195872682757" as="sourcePoint" />
            <mxPoint x="69.23076923076923" y="60.00195872682757" as="targetPoint" />
          </mxGeometry>
        </mxCell>
        <mxCell id="_Nc8eTW4AAFqFcOwRR8p-298" value="" style="endArrow=none;html=1;rounded=0;" edge="1" parent="_Nc8eTW4AAFqFcOwRR8p-289">
          <mxGeometry width="50" height="50" relative="1" as="geometry">
            <mxPoint x="20.76923076923077" y="67.50220356768101" as="sourcePoint" />
            <mxPoint x="69.23076923076923" y="67.50220356768101" as="targetPoint" />
          </mxGeometry>
        </mxCell>
        <mxCell id="_Nc8eTW4AAFqFcOwRR8p-299" value="" style="endArrow=none;html=1;rounded=0;" edge="1" parent="_Nc8eTW4AAFqFcOwRR8p-289">
          <mxGeometry width="50" height="50" relative="1" as="geometry">
            <mxPoint x="20.76923076923077" y="67.50220356768101" as="sourcePoint" />
            <mxPoint x="69.23076923076923" y="67.50220356768101" as="targetPoint" />
          </mxGeometry>
        </mxCell>
        <mxCell id="_Nc8eTW4AAFqFcOwRR8p-300" value="" style="endArrow=none;html=1;rounded=0;" edge="1" parent="_Nc8eTW4AAFqFcOwRR8p-289">
          <mxGeometry width="50" height="50" relative="1" as="geometry">
            <mxPoint x="20.76923076923077" y="75.00244840853446" as="sourcePoint" />
            <mxPoint x="69.23076923076923" y="75.00244840853446" as="targetPoint" />
          </mxGeometry>
        </mxCell>
        <mxCell id="_Nc8eTW4AAFqFcOwRR8p-301" value="" style="endArrow=none;html=1;rounded=0;" edge="1" parent="_Nc8eTW4AAFqFcOwRR8p-289">
          <mxGeometry width="50" height="50" relative="1" as="geometry">
            <mxPoint x="20.76923076923077" y="82.5026932493879" as="sourcePoint" />
            <mxPoint x="69.23076923076923" y="82.5026932493879" as="targetPoint" />
          </mxGeometry>
        </mxCell>
        <mxCell id="_Nc8eTW4AAFqFcOwRR8p-302" value="" style="endArrow=none;html=1;rounded=0;" edge="1" parent="_Nc8eTW4AAFqFcOwRR8p-289">
          <mxGeometry width="50" height="50" relative="1" as="geometry">
            <mxPoint x="20.76923076923077" y="90.00293809024134" as="sourcePoint" />
            <mxPoint x="69.23076923076923" y="90.00293809024134" as="targetPoint" />
          </mxGeometry>
        </mxCell>
        <mxCell id="_Nc8eTW4AAFqFcOwRR8p-303" value="" style="endArrow=none;html=1;rounded=0;" edge="1" parent="_Nc8eTW4AAFqFcOwRR8p-289">
          <mxGeometry width="50" height="50" relative="1" as="geometry">
            <mxPoint x="20.76923076923077" y="97.5031829310948" as="sourcePoint" />
            <mxPoint x="69.23076923076923" y="97.5031829310948" as="targetPoint" />
          </mxGeometry>
        </mxCell>
        <mxCell id="_Nc8eTW4AAFqFcOwRR8p-304" value="" style="endArrow=none;html=1;rounded=0;" edge="1" parent="_Nc8eTW4AAFqFcOwRR8p-289">
          <mxGeometry width="50" height="50" relative="1" as="geometry">
            <mxPoint x="20.76923076923077" y="105.00342777194824" as="sourcePoint" />
            <mxPoint x="69.23076923076923" y="105.00342777194824" as="targetPoint" />
          </mxGeometry>
        </mxCell>
        <mxCell id="_Nc8eTW4AAFqFcOwRR8p-305" value="" style="endArrow=none;html=1;rounded=0;" edge="1" parent="_Nc8eTW4AAFqFcOwRR8p-289">
          <mxGeometry width="50" height="50" relative="1" as="geometry">
            <mxPoint x="20.76923076923077" y="112.5036726128017" as="sourcePoint" />
            <mxPoint x="69.23076923076923" y="112.5036726128017" as="targetPoint" />
          </mxGeometry>
        </mxCell>
        <mxCell id="_Nc8eTW4AAFqFcOwRR8p-306" value="" style="endArrow=none;html=1;rounded=0;" edge="1" parent="_Nc8eTW4AAFqFcOwRR8p-289">
          <mxGeometry width="50" height="50" relative="1" as="geometry">
            <mxPoint x="20.76923076923077" y="120.00391745365513" as="sourcePoint" />
            <mxPoint x="69.23076923076923" y="120.00391745365513" as="targetPoint" />
          </mxGeometry>
        </mxCell>
        <mxCell id="_Nc8eTW4AAFqFcOwRR8p-307" value="" style="endArrow=none;html=1;rounded=0;" edge="1" parent="_Nc8eTW4AAFqFcOwRR8p-289">
          <mxGeometry width="50" height="50" relative="1" as="geometry">
            <mxPoint x="20.76923076923077" y="127.50416229450857" as="sourcePoint" />
            <mxPoint x="69.23076923076923" y="127.50416229450857" as="targetPoint" />
          </mxGeometry>
        </mxCell>
        <mxCell id="_Nc8eTW4AAFqFcOwRR8p-308" value="" style="endArrow=none;html=1;rounded=0;" edge="1" parent="_Nc8eTW4AAFqFcOwRR8p-289">
          <mxGeometry width="50" height="50" relative="1" as="geometry">
            <mxPoint x="20.76923076923077" y="135.00440713536202" as="sourcePoint" />
            <mxPoint x="69.23076923076923" y="135.00440713536202" as="targetPoint" />
          </mxGeometry>
        </mxCell>
        <mxCell id="_Nc8eTW4AAFqFcOwRR8p-309" value="" style="endArrow=none;html=1;rounded=0;" edge="1" parent="_Nc8eTW4AAFqFcOwRR8p-289">
          <mxGeometry width="50" height="50" relative="1" as="geometry">
            <mxPoint x="20.76923076923077" y="142.50465197621546" as="sourcePoint" />
            <mxPoint x="69.23076923076923" y="142.50465197621546" as="targetPoint" />
          </mxGeometry>
        </mxCell>
        <mxCell id="_Nc8eTW4AAFqFcOwRR8p-310" value="" style="endArrow=none;html=1;rounded=0;strokeWidth=4;" edge="1" parent="_Nc8eTW4AAFqFcOwRR8p-289">
          <mxGeometry width="50" height="50" relative="1" as="geometry">
            <mxPoint x="34.61538461538461" as="sourcePoint" />
            <mxPoint x="55.38461538461539" as="targetPoint" />
          </mxGeometry>
        </mxCell>
        <mxCell id="_Nc8eTW4AAFqFcOwRR8p-311" value="" style="endArrow=none;html=1;rounded=0;strokeWidth=4;" edge="1" parent="_Nc8eTW4AAFqFcOwRR8p-289">
          <mxGeometry width="50" height="50" relative="1" as="geometry">
            <mxPoint x="69.23076923076923" y="22.500734522560336" as="sourcePoint" />
            <mxPoint x="55.38461538461539" as="targetPoint" />
          </mxGeometry>
        </mxCell>
        <mxCell id="_Nc8eTW4AAFqFcOwRR8p-312" value="" style="endArrow=none;html=1;rounded=0;strokeWidth=4;" edge="1" parent="_Nc8eTW4AAFqFcOwRR8p-289">
          <mxGeometry width="50" height="50" relative="1" as="geometry">
            <mxPoint x="20.76923076923077" y="22.500734522560336" as="sourcePoint" />
            <mxPoint x="34.61538461538461" as="targetPoint" />
          </mxGeometry>
        </mxCell>
        <mxCell id="_Nc8eTW4AAFqFcOwRR8p-313" value="" style="endArrow=none;html=1;rounded=0;strokeWidth=9;" edge="1" parent="_Nc8eTW4AAFqFcOwRR8p-289">
          <mxGeometry width="50" height="50" relative="1" as="geometry">
            <mxPoint y="22.500734522560336" as="sourcePoint" />
            <mxPoint x="90" y="22.500734522560336" as="targetPoint" />
          </mxGeometry>
        </mxCell>
        <mxCell id="_Nc8eTW4AAFqFcOwRR8p-314" value="" style="endArrow=none;html=1;rounded=0;" edge="1" parent="_Nc8eTW4AAFqFcOwRR8p-289">
          <mxGeometry width="50" height="50" relative="1" as="geometry">
            <mxPoint x="27.692307692307693" y="11.250367261280168" as="sourcePoint" />
            <mxPoint x="62.30769230769231" y="11.250367261280168" as="targetPoint" />
          </mxGeometry>
        </mxCell>
        <mxCell id="_Nc8eTW4AAFqFcOwRR8p-315" value="" style="group" vertex="1" connectable="0" parent="_Nc8eTW4AAFqFcOwRR8p-289">
          <mxGeometry x="20.772692307692306" y="142.50840209863597" width="49.15384615384616" height="125.53159790136414" as="geometry" />
        </mxCell>
        <mxCell id="_Nc8eTW4AAFqFcOwRR8p-316" value="" style="rounded=0;whiteSpace=wrap;html=1;rotation=90;" vertex="1" parent="_Nc8eTW4AAFqFcOwRR8p-315">
          <mxGeometry x="-33.35884615384616" y="30.40982287662664" width="115.87153846153848" height="53.25173837005946" as="geometry" />
        </mxCell>
        <mxCell id="_Nc8eTW4AAFqFcOwRR8p-317" value="" style="rounded=0;whiteSpace=wrap;html=1;" vertex="1" parent="_Nc8eTW4AAFqFcOwRR8p-315">
          <mxGeometry x="3.6657692307692358" y="2.6588367960825474" width="41.822307692307696" height="14.092960055963623" as="geometry" />
        </mxCell>
        <mxCell id="_Nc8eTW4AAFqFcOwRR8p-318" value="" style="rounded=0;whiteSpace=wrap;html=1;" vertex="1" parent="_Nc8eTW4AAFqFcOwRR8p-315">
          <mxGeometry x="3.6657692307692358" y="22.046969709688707" width="41.822307692307696" height="14.092960055963623" as="geometry" />
        </mxCell>
        <mxCell id="_Nc8eTW4AAFqFcOwRR8p-319" value="" style="rounded=0;whiteSpace=wrap;html=1;" vertex="1" parent="_Nc8eTW4AAFqFcOwRR8p-315">
          <mxGeometry x="3.665769230769228" y="40.16006100034978" width="41.822307692307696" height="14.092960055963623" as="geometry" />
        </mxCell>
        <mxCell id="_Nc8eTW4AAFqFcOwRR8p-320" value="" style="rounded=0;whiteSpace=wrap;html=1;" vertex="1" parent="_Nc8eTW4AAFqFcOwRR8p-315">
          <mxGeometry x="3.665769230769228" y="59.54819391395586" width="41.822307692307696" height="14.092960055963623" as="geometry" />
        </mxCell>
        <mxCell id="_Nc8eTW4AAFqFcOwRR8p-321" value="" style="rounded=0;whiteSpace=wrap;html=1;" vertex="1" parent="_Nc8eTW4AAFqFcOwRR8p-315">
          <mxGeometry x="3.665769230769228" y="77.93129401888766" width="41.822307692307696" height="14.092960055963623" as="geometry" />
        </mxCell>
        <mxCell id="_Nc8eTW4AAFqFcOwRR8p-322" value="" style="rounded=0;whiteSpace=wrap;html=1;" vertex="1" parent="_Nc8eTW4AAFqFcOwRR8p-315">
          <mxGeometry x="3.665769230769228" y="97.31942693249376" width="41.822307692307696" height="14.092960055963623" as="geometry" />
        </mxCell>
        <mxCell id="_Nc8eTW4AAFqFcOwRR8p-355" value="" style="rounded=0;whiteSpace=wrap;html=1;rotation=90;" vertex="1" parent="_Nc8eTW4AAFqFcOwRR8p-39">
          <mxGeometry x="451" y="332" width="46.25" height="15" as="geometry" />
        </mxCell>
        <mxCell id="_Nc8eTW4AAFqFcOwRR8p-356" value="" style="rounded=0;whiteSpace=wrap;html=1;rotation=90;" vertex="1" parent="_Nc8eTW4AAFqFcOwRR8p-39">
          <mxGeometry x="471" y="332" width="46.25" height="13.75" as="geometry" />
        </mxCell>
        <mxCell id="_Nc8eTW4AAFqFcOwRR8p-357" value="" style="rounded=0;whiteSpace=wrap;html=1;rotation=90;" vertex="1" parent="_Nc8eTW4AAFqFcOwRR8p-39">
          <mxGeometry x="492.87" y="332" width="46.25" height="13.75" as="geometry" />
        </mxCell>
        <mxCell id="_Nc8eTW4AAFqFcOwRR8p-358" value="" style="rounded=0;whiteSpace=wrap;html=1;rotation=90;" vertex="1" parent="_Nc8eTW4AAFqFcOwRR8p-39">
          <mxGeometry x="511" y="332" width="46.25" height="13.75" as="geometry" />
        </mxCell>
        <mxCell id="_Nc8eTW4AAFqFcOwRR8p-359" value="" style="rounded=0;whiteSpace=wrap;html=1;rotation=90;" vertex="1" parent="_Nc8eTW4AAFqFcOwRR8p-39">
          <mxGeometry x="530.75" y="332" width="46.25" height="13.75" as="geometry" />
        </mxCell>
        <mxCell id="_Nc8eTW4AAFqFcOwRR8p-365" value="" style="rounded=0;whiteSpace=wrap;html=1;" vertex="1" parent="_Nc8eTW4AAFqFcOwRR8p-39">
          <mxGeometry x="310" y="368" width="110" height="75" as="geometry" />
        </mxCell>
        <mxCell id="_Nc8eTW4AAFqFcOwRR8p-366" value="" style="rounded=0;whiteSpace=wrap;html=1;" vertex="1" parent="_Nc8eTW4AAFqFcOwRR8p-39">
          <mxGeometry x="460" y="365" width="110" height="75" as="geometry" />
        </mxCell>
        <mxCell id="_Nc8eTW4AAFqFcOwRR8p-46" value="" style="group" vertex="1" connectable="0" parent="1">
          <mxGeometry x="-200" y="580" width="950" height="110" as="geometry" />
        </mxCell>
        <mxCell id="_Nc8eTW4AAFqFcOwRR8p-1" value="" style="endArrow=block;startArrow=block;html=1;rounded=0;endSize=12;strokeWidth=2;targetPerimeterSpacing=17;startSize=12;startFill=1;endFill=1;" edge="1" parent="_Nc8eTW4AAFqFcOwRR8p-46">
          <mxGeometry width="50" height="50" relative="1" as="geometry">
            <mxPoint as="sourcePoint" />
            <mxPoint x="950" as="targetPoint" />
          </mxGeometry>
        </mxCell>
        <mxCell id="_Nc8eTW4AAFqFcOwRR8p-2" value="" style="endArrow=block;startArrow=block;html=1;rounded=0;endSize=12;strokeWidth=2;targetPerimeterSpacing=17;startSize=12;startFill=1;endFill=1;" edge="1" parent="_Nc8eTW4AAFqFcOwRR8p-46">
          <mxGeometry width="50" height="50" relative="1" as="geometry">
            <mxPoint y="27.5" as="sourcePoint" />
            <mxPoint x="950" y="27.5" as="targetPoint" />
          </mxGeometry>
        </mxCell>
        <mxCell id="_Nc8eTW4AAFqFcOwRR8p-3" value="" style="endArrow=block;startArrow=block;html=1;rounded=0;endSize=12;strokeWidth=2;targetPerimeterSpacing=17;startSize=12;startFill=1;endFill=1;" edge="1" parent="_Nc8eTW4AAFqFcOwRR8p-46">
          <mxGeometry width="50" height="50" relative="1" as="geometry">
            <mxPoint y="55" as="sourcePoint" />
            <mxPoint x="950" y="55" as="targetPoint" />
          </mxGeometry>
        </mxCell>
        <mxCell id="_Nc8eTW4AAFqFcOwRR8p-4" value="" style="endArrow=block;startArrow=block;html=1;rounded=0;endSize=12;strokeWidth=2;targetPerimeterSpacing=17;startSize=12;startFill=1;endFill=1;" edge="1" parent="_Nc8eTW4AAFqFcOwRR8p-46">
          <mxGeometry width="50" height="50" relative="1" as="geometry">
            <mxPoint y="82.5" as="sourcePoint" />
            <mxPoint x="950" y="82.5" as="targetPoint" />
          </mxGeometry>
        </mxCell>
        <mxCell id="_Nc8eTW4AAFqFcOwRR8p-7" value="" style="endArrow=block;startArrow=block;html=1;rounded=0;endSize=12;strokeWidth=2;targetPerimeterSpacing=17;startSize=12;startFill=1;endFill=1;" edge="1" parent="_Nc8eTW4AAFqFcOwRR8p-46">
          <mxGeometry width="50" height="50" relative="1" as="geometry">
            <mxPoint y="110" as="sourcePoint" />
            <mxPoint x="950" y="110" as="targetPoint" />
          </mxGeometry>
        </mxCell>
        <mxCell id="_Nc8eTW4AAFqFcOwRR8p-47" value="" style="group" vertex="1" connectable="0" parent="1">
          <mxGeometry x="-208" y="920" width="950" height="100" as="geometry" />
        </mxCell>
        <mxCell id="_Nc8eTW4AAFqFcOwRR8p-48" value="" style="endArrow=block;startArrow=block;html=1;rounded=0;endSize=12;strokeWidth=2;targetPerimeterSpacing=17;startSize=12;startFill=1;endFill=1;" edge="1" parent="_Nc8eTW4AAFqFcOwRR8p-47">
          <mxGeometry width="50" height="50" relative="1" as="geometry">
            <mxPoint as="sourcePoint" />
            <mxPoint x="950" as="targetPoint" />
          </mxGeometry>
        </mxCell>
        <mxCell id="_Nc8eTW4AAFqFcOwRR8p-49" value="" style="endArrow=block;startArrow=block;html=1;rounded=0;endSize=12;strokeWidth=2;targetPerimeterSpacing=17;startSize=12;startFill=1;endFill=1;" edge="1" parent="_Nc8eTW4AAFqFcOwRR8p-47">
          <mxGeometry width="50" height="50" relative="1" as="geometry">
            <mxPoint y="25" as="sourcePoint" />
            <mxPoint x="950" y="25" as="targetPoint" />
          </mxGeometry>
        </mxCell>
        <mxCell id="_Nc8eTW4AAFqFcOwRR8p-50" value="" style="endArrow=block;startArrow=block;html=1;rounded=0;endSize=12;strokeWidth=2;targetPerimeterSpacing=17;startSize=12;startFill=1;endFill=1;" edge="1" parent="_Nc8eTW4AAFqFcOwRR8p-47">
          <mxGeometry width="50" height="50" relative="1" as="geometry">
            <mxPoint y="50" as="sourcePoint" />
            <mxPoint x="950" y="50" as="targetPoint" />
          </mxGeometry>
        </mxCell>
        <mxCell id="_Nc8eTW4AAFqFcOwRR8p-51" value="" style="endArrow=block;startArrow=block;html=1;rounded=0;endSize=12;strokeWidth=2;targetPerimeterSpacing=17;startSize=12;startFill=1;endFill=1;" edge="1" parent="_Nc8eTW4AAFqFcOwRR8p-47">
          <mxGeometry width="50" height="50" relative="1" as="geometry">
            <mxPoint y="75" as="sourcePoint" />
            <mxPoint x="950" y="75" as="targetPoint" />
          </mxGeometry>
        </mxCell>
        <mxCell id="_Nc8eTW4AAFqFcOwRR8p-52" value="" style="endArrow=block;startArrow=block;html=1;rounded=0;endSize=12;strokeWidth=2;targetPerimeterSpacing=17;startSize=12;startFill=1;endFill=1;" edge="1" parent="_Nc8eTW4AAFqFcOwRR8p-47">
          <mxGeometry width="50" height="50" relative="1" as="geometry">
            <mxPoint y="100" as="sourcePoint" />
            <mxPoint x="950" y="100" as="targetPoint" />
          </mxGeometry>
        </mxCell>
        <mxCell id="_Nc8eTW4AAFqFcOwRR8p-53" value="" style="endArrow=block;startArrow=none;html=1;rounded=0;endSize=12;strokeWidth=2;startSize=0;startFill=0;endFill=1;sourcePerimeterSpacing=17;" edge="1" parent="1">
          <mxGeometry width="50" height="50" relative="1" as="geometry">
            <mxPoint x="-52" y="920" as="sourcePoint" />
            <mxPoint x="-51.99999999999909" y="537" as="targetPoint" />
          </mxGeometry>
        </mxCell>
        <mxCell id="_Nc8eTW4AAFqFcOwRR8p-54" value="" style="endArrow=block;startArrow=none;html=1;rounded=0;endSize=12;strokeWidth=2;startSize=12;startFill=0;endFill=1;sourcePerimeterSpacing=17;" edge="1" parent="1">
          <mxGeometry width="50" height="50" relative="1" as="geometry">
            <mxPoint x="-25" y="922" as="sourcePoint" />
            <mxPoint x="-24.99999999999909" y="537" as="targetPoint" />
          </mxGeometry>
        </mxCell>
        <mxCell id="_Nc8eTW4AAFqFcOwRR8p-55" value="" style="endArrow=block;startArrow=none;html=1;rounded=0;endSize=12;strokeWidth=2;startSize=12;startFill=0;endFill=1;sourcePerimeterSpacing=17;" edge="1" parent="1">
          <mxGeometry width="50" height="50" relative="1" as="geometry">
            <mxPoint x="110" y="920" as="sourcePoint" />
            <mxPoint x="112" y="536" as="targetPoint" />
          </mxGeometry>
        </mxCell>
        <mxCell id="_Nc8eTW4AAFqFcOwRR8p-56" value="" style="endArrow=block;startArrow=none;html=1;rounded=0;endSize=12;strokeWidth=2;startSize=12;startFill=0;endFill=1;sourcePerimeterSpacing=17;" edge="1" parent="1">
          <mxGeometry width="50" height="50" relative="1" as="geometry">
            <mxPoint x="135" y="920" as="sourcePoint" />
            <mxPoint x="135.0000000000009" y="537" as="targetPoint" />
          </mxGeometry>
        </mxCell>
        <mxCell id="_Nc8eTW4AAFqFcOwRR8p-57" value="" style="endArrow=block;startArrow=none;html=1;rounded=0;endSize=12;strokeWidth=2;startSize=12;startFill=0;endFill=1;sourcePerimeterSpacing=17;" edge="1" parent="1">
          <mxGeometry width="50" height="50" relative="1" as="geometry">
            <mxPoint x="257" y="920" as="sourcePoint" />
            <mxPoint x="257.0000000000009" y="538" as="targetPoint" />
          </mxGeometry>
        </mxCell>
        <mxCell id="_Nc8eTW4AAFqFcOwRR8p-58" value="" style="endArrow=block;startArrow=none;html=1;rounded=0;endSize=12;strokeWidth=2;startSize=12;startFill=0;endFill=1;sourcePerimeterSpacing=17;" edge="1" parent="1">
          <mxGeometry width="50" height="50" relative="1" as="geometry">
            <mxPoint x="281" y="920" as="sourcePoint" />
            <mxPoint x="281.0000000000009" y="538.4972727272689" as="targetPoint" />
          </mxGeometry>
        </mxCell>
        <mxCell id="_Nc8eTW4AAFqFcOwRR8p-60" value="" style="endArrow=block;startArrow=none;html=1;rounded=0;endSize=12;strokeWidth=2;startSize=12;startFill=0;endFill=1;sourcePerimeterSpacing=17;" edge="1" parent="1">
          <mxGeometry width="50" height="50" relative="1" as="geometry">
            <mxPoint x="414" y="919" as="sourcePoint" />
            <mxPoint x="415.0000000000009" y="537" as="targetPoint" />
          </mxGeometry>
        </mxCell>
        <mxCell id="_Nc8eTW4AAFqFcOwRR8p-61" value="" style="endArrow=block;startArrow=none;html=1;rounded=0;endSize=12;strokeWidth=2;startSize=12;startFill=0;endFill=1;sourcePerimeterSpacing=17;" edge="1" parent="1">
          <mxGeometry width="50" height="50" relative="1" as="geometry">
            <mxPoint x="445" y="920" as="sourcePoint" />
            <mxPoint x="445.0000000000009" y="538" as="targetPoint" />
          </mxGeometry>
        </mxCell>
        <mxCell id="_Nc8eTW4AAFqFcOwRR8p-66" value="" style="endArrow=block;startArrow=none;html=1;rounded=0;endSize=12;strokeWidth=2;startSize=12;startFill=0;endFill=1;sourcePerimeterSpacing=17;" edge="1" parent="1">
          <mxGeometry width="50" height="50" relative="1" as="geometry">
            <mxPoint x="580" y="920" as="sourcePoint" />
            <mxPoint x="580" y="537" as="targetPoint" />
          </mxGeometry>
        </mxCell>
        <mxCell id="_Nc8eTW4AAFqFcOwRR8p-67" value="" style="endArrow=block;startArrow=none;html=1;rounded=0;endSize=12;strokeWidth=2;startSize=12;startFill=0;endFill=1;sourcePerimeterSpacing=17;" edge="1" parent="1">
          <mxGeometry width="50" height="50" relative="1" as="geometry">
            <mxPoint x="601" y="920" as="sourcePoint" />
            <mxPoint x="603.0000000000009" y="537" as="targetPoint" />
          </mxGeometry>
        </mxCell>
        <mxCell id="_Nc8eTW4AAFqFcOwRR8p-16" value="" style="endArrow=block;startArrow=block;html=1;rounded=0;endSize=12;strokeWidth=2;startSize=12;startFill=1;endFill=1;sourcePerimeterSpacing=17;" edge="1" parent="1">
          <mxGeometry width="50" height="50" relative="1" as="geometry">
            <mxPoint x="85.00000000000091" y="1117.1847727272784" as="sourcePoint" />
            <mxPoint x="85.00000000000091" y="537.8097727272684" as="targetPoint" />
          </mxGeometry>
        </mxCell>
        <mxCell id="_Nc8eTW4AAFqFcOwRR8p-17" value="" style="endArrow=block;startArrow=block;html=1;rounded=0;endSize=12;strokeWidth=2;startSize=12;startFill=1;endFill=1;sourcePerimeterSpacing=17;" edge="1" parent="1">
          <mxGeometry width="50" height="50" relative="1" as="geometry">
            <mxPoint x="65.00000000000091" y="1117.1847727272784" as="sourcePoint" />
            <mxPoint x="65.00000000000091" y="537.8097727272684" as="targetPoint" />
          </mxGeometry>
        </mxCell>
        <mxCell id="_Nc8eTW4AAFqFcOwRR8p-18" value="" style="endArrow=block;startArrow=block;html=1;rounded=0;endSize=12;strokeWidth=2;startSize=12;startFill=1;endFill=1;sourcePerimeterSpacing=17;" edge="1" parent="1">
          <mxGeometry width="50" height="50" relative="1" as="geometry">
            <mxPoint x="45.00000000000091" y="1117.1847727272784" as="sourcePoint" />
            <mxPoint x="45.00000000000091" y="537.8097727272684" as="targetPoint" />
          </mxGeometry>
        </mxCell>
        <mxCell id="_Nc8eTW4AAFqFcOwRR8p-19" value="" style="endArrow=block;startArrow=block;html=1;rounded=0;endSize=12;strokeWidth=2;startSize=12;startFill=1;endFill=1;sourcePerimeterSpacing=17;" edge="1" parent="1">
          <mxGeometry width="50" height="50" relative="1" as="geometry">
            <mxPoint x="25.00000000000091" y="1117.1847727272784" as="sourcePoint" />
            <mxPoint x="25.00000000000091" y="537.8097727272684" as="targetPoint" />
          </mxGeometry>
        </mxCell>
        <mxCell id="_Nc8eTW4AAFqFcOwRR8p-20" value="" style="endArrow=block;startArrow=block;html=1;rounded=0;endSize=12;strokeWidth=2;startSize=12;startFill=1;endFill=1;sourcePerimeterSpacing=17;" edge="1" parent="1">
          <mxGeometry width="50" height="50" relative="1" as="geometry">
            <mxPoint x="5.0000000000009095" y="1117.1847727272784" as="sourcePoint" />
            <mxPoint x="5.0000000000009095" y="537.8097727272684" as="targetPoint" />
          </mxGeometry>
        </mxCell>
        <mxCell id="_Nc8eTW4AAFqFcOwRR8p-119" value="" style="group;aspect=fixed;" vertex="1" connectable="0" parent="1">
          <mxGeometry x="-140" y="400" width="90" height="268.04" as="geometry" />
        </mxCell>
        <mxCell id="_Nc8eTW4AAFqFcOwRR8p-120" value="" style="endArrow=none;html=1;rounded=0;strokeWidth=4;" edge="1" parent="_Nc8eTW4AAFqFcOwRR8p-119">
          <mxGeometry width="50" height="50" relative="1" as="geometry">
            <mxPoint x="20.76923076923077" y="142.50465197621546" as="sourcePoint" />
            <mxPoint x="20.76923076923077" y="22.500734522560336" as="targetPoint" />
          </mxGeometry>
        </mxCell>
        <mxCell id="_Nc8eTW4AAFqFcOwRR8p-121" value="" style="endArrow=none;html=1;rounded=0;strokeWidth=4;" edge="1" parent="_Nc8eTW4AAFqFcOwRR8p-119">
          <mxGeometry width="50" height="50" relative="1" as="geometry">
            <mxPoint x="69.23076923076923" y="142.50465197621546" as="sourcePoint" />
            <mxPoint x="69.23076923076923" y="22.500734522560336" as="targetPoint" />
          </mxGeometry>
        </mxCell>
        <mxCell id="_Nc8eTW4AAFqFcOwRR8p-122" value="" style="endArrow=none;html=1;rounded=0;" edge="1" parent="_Nc8eTW4AAFqFcOwRR8p-119">
          <mxGeometry width="50" height="50" relative="1" as="geometry">
            <mxPoint x="45" y="142.50465197621546" as="sourcePoint" />
            <mxPoint x="45" as="targetPoint" />
          </mxGeometry>
        </mxCell>
        <mxCell id="_Nc8eTW4AAFqFcOwRR8p-123" value="" style="endArrow=none;html=1;rounded=0;" edge="1" parent="_Nc8eTW4AAFqFcOwRR8p-119">
          <mxGeometry width="50" height="50" relative="1" as="geometry">
            <mxPoint x="20.76923076923077" y="30.000979363413784" as="sourcePoint" />
            <mxPoint x="69.23076923076923" y="30.000979363413784" as="targetPoint" />
          </mxGeometry>
        </mxCell>
        <mxCell id="_Nc8eTW4AAFqFcOwRR8p-124" value="" style="endArrow=none;html=1;rounded=0;" edge="1" parent="_Nc8eTW4AAFqFcOwRR8p-119">
          <mxGeometry width="50" height="50" relative="1" as="geometry">
            <mxPoint x="20.76923076923077" y="37.50122420426723" as="sourcePoint" />
            <mxPoint x="69.23076923076923" y="37.50122420426723" as="targetPoint" />
          </mxGeometry>
        </mxCell>
        <mxCell id="_Nc8eTW4AAFqFcOwRR8p-125" value="" style="endArrow=none;html=1;rounded=0;" edge="1" parent="_Nc8eTW4AAFqFcOwRR8p-119">
          <mxGeometry width="50" height="50" relative="1" as="geometry">
            <mxPoint x="20.76923076923077" y="45.00146904512067" as="sourcePoint" />
            <mxPoint x="69.23076923076923" y="45.00146904512067" as="targetPoint" />
          </mxGeometry>
        </mxCell>
        <mxCell id="_Nc8eTW4AAFqFcOwRR8p-126" value="" style="endArrow=none;html=1;rounded=0;" edge="1" parent="_Nc8eTW4AAFqFcOwRR8p-119">
          <mxGeometry width="50" height="50" relative="1" as="geometry">
            <mxPoint x="20.76923076923077" y="52.50171388597412" as="sourcePoint" />
            <mxPoint x="69.23076923076923" y="52.50171388597412" as="targetPoint" />
          </mxGeometry>
        </mxCell>
        <mxCell id="_Nc8eTW4AAFqFcOwRR8p-127" value="" style="endArrow=none;html=1;rounded=0;" edge="1" parent="_Nc8eTW4AAFqFcOwRR8p-119">
          <mxGeometry width="50" height="50" relative="1" as="geometry">
            <mxPoint x="20.76923076923077" y="60.00195872682757" as="sourcePoint" />
            <mxPoint x="69.23076923076923" y="60.00195872682757" as="targetPoint" />
          </mxGeometry>
        </mxCell>
        <mxCell id="_Nc8eTW4AAFqFcOwRR8p-128" value="" style="endArrow=none;html=1;rounded=0;" edge="1" parent="_Nc8eTW4AAFqFcOwRR8p-119">
          <mxGeometry width="50" height="50" relative="1" as="geometry">
            <mxPoint x="20.76923076923077" y="67.50220356768101" as="sourcePoint" />
            <mxPoint x="69.23076923076923" y="67.50220356768101" as="targetPoint" />
          </mxGeometry>
        </mxCell>
        <mxCell id="_Nc8eTW4AAFqFcOwRR8p-129" value="" style="endArrow=none;html=1;rounded=0;" edge="1" parent="_Nc8eTW4AAFqFcOwRR8p-119">
          <mxGeometry width="50" height="50" relative="1" as="geometry">
            <mxPoint x="20.76923076923077" y="67.50220356768101" as="sourcePoint" />
            <mxPoint x="69.23076923076923" y="67.50220356768101" as="targetPoint" />
          </mxGeometry>
        </mxCell>
        <mxCell id="_Nc8eTW4AAFqFcOwRR8p-130" value="" style="endArrow=none;html=1;rounded=0;" edge="1" parent="_Nc8eTW4AAFqFcOwRR8p-119">
          <mxGeometry width="50" height="50" relative="1" as="geometry">
            <mxPoint x="20.76923076923077" y="75.00244840853446" as="sourcePoint" />
            <mxPoint x="69.23076923076923" y="75.00244840853446" as="targetPoint" />
          </mxGeometry>
        </mxCell>
        <mxCell id="_Nc8eTW4AAFqFcOwRR8p-131" value="" style="endArrow=none;html=1;rounded=0;" edge="1" parent="_Nc8eTW4AAFqFcOwRR8p-119">
          <mxGeometry width="50" height="50" relative="1" as="geometry">
            <mxPoint x="20.76923076923077" y="82.5026932493879" as="sourcePoint" />
            <mxPoint x="69.23076923076923" y="82.5026932493879" as="targetPoint" />
          </mxGeometry>
        </mxCell>
        <mxCell id="_Nc8eTW4AAFqFcOwRR8p-132" value="" style="endArrow=none;html=1;rounded=0;" edge="1" parent="_Nc8eTW4AAFqFcOwRR8p-119">
          <mxGeometry width="50" height="50" relative="1" as="geometry">
            <mxPoint x="20.76923076923077" y="90.00293809024134" as="sourcePoint" />
            <mxPoint x="69.23076923076923" y="90.00293809024134" as="targetPoint" />
          </mxGeometry>
        </mxCell>
        <mxCell id="_Nc8eTW4AAFqFcOwRR8p-133" value="" style="endArrow=none;html=1;rounded=0;" edge="1" parent="_Nc8eTW4AAFqFcOwRR8p-119">
          <mxGeometry width="50" height="50" relative="1" as="geometry">
            <mxPoint x="20.76923076923077" y="97.5031829310948" as="sourcePoint" />
            <mxPoint x="69.23076923076923" y="97.5031829310948" as="targetPoint" />
          </mxGeometry>
        </mxCell>
        <mxCell id="_Nc8eTW4AAFqFcOwRR8p-134" value="" style="endArrow=none;html=1;rounded=0;" edge="1" parent="_Nc8eTW4AAFqFcOwRR8p-119">
          <mxGeometry width="50" height="50" relative="1" as="geometry">
            <mxPoint x="20.76923076923077" y="105.00342777194824" as="sourcePoint" />
            <mxPoint x="69.23076923076923" y="105.00342777194824" as="targetPoint" />
          </mxGeometry>
        </mxCell>
        <mxCell id="_Nc8eTW4AAFqFcOwRR8p-135" value="" style="endArrow=none;html=1;rounded=0;" edge="1" parent="_Nc8eTW4AAFqFcOwRR8p-119">
          <mxGeometry width="50" height="50" relative="1" as="geometry">
            <mxPoint x="20.76923076923077" y="112.5036726128017" as="sourcePoint" />
            <mxPoint x="69.23076923076923" y="112.5036726128017" as="targetPoint" />
          </mxGeometry>
        </mxCell>
        <mxCell id="_Nc8eTW4AAFqFcOwRR8p-136" value="" style="endArrow=none;html=1;rounded=0;" edge="1" parent="_Nc8eTW4AAFqFcOwRR8p-119">
          <mxGeometry width="50" height="50" relative="1" as="geometry">
            <mxPoint x="20.76923076923077" y="120.00391745365513" as="sourcePoint" />
            <mxPoint x="69.23076923076923" y="120.00391745365513" as="targetPoint" />
          </mxGeometry>
        </mxCell>
        <mxCell id="_Nc8eTW4AAFqFcOwRR8p-137" value="" style="endArrow=none;html=1;rounded=0;" edge="1" parent="_Nc8eTW4AAFqFcOwRR8p-119">
          <mxGeometry width="50" height="50" relative="1" as="geometry">
            <mxPoint x="20.76923076923077" y="127.50416229450857" as="sourcePoint" />
            <mxPoint x="69.23076923076923" y="127.50416229450857" as="targetPoint" />
          </mxGeometry>
        </mxCell>
        <mxCell id="_Nc8eTW4AAFqFcOwRR8p-138" value="" style="endArrow=none;html=1;rounded=0;" edge="1" parent="_Nc8eTW4AAFqFcOwRR8p-119">
          <mxGeometry width="50" height="50" relative="1" as="geometry">
            <mxPoint x="20.76923076923077" y="135.00440713536202" as="sourcePoint" />
            <mxPoint x="69.23076923076923" y="135.00440713536202" as="targetPoint" />
          </mxGeometry>
        </mxCell>
        <mxCell id="_Nc8eTW4AAFqFcOwRR8p-139" value="" style="endArrow=none;html=1;rounded=0;" edge="1" parent="_Nc8eTW4AAFqFcOwRR8p-119">
          <mxGeometry width="50" height="50" relative="1" as="geometry">
            <mxPoint x="20.76923076923077" y="142.50465197621546" as="sourcePoint" />
            <mxPoint x="69.23076923076923" y="142.50465197621546" as="targetPoint" />
          </mxGeometry>
        </mxCell>
        <mxCell id="_Nc8eTW4AAFqFcOwRR8p-140" value="" style="endArrow=none;html=1;rounded=0;strokeWidth=4;" edge="1" parent="_Nc8eTW4AAFqFcOwRR8p-119">
          <mxGeometry width="50" height="50" relative="1" as="geometry">
            <mxPoint x="34.61538461538461" as="sourcePoint" />
            <mxPoint x="55.38461538461539" as="targetPoint" />
          </mxGeometry>
        </mxCell>
        <mxCell id="_Nc8eTW4AAFqFcOwRR8p-141" value="" style="endArrow=none;html=1;rounded=0;strokeWidth=4;" edge="1" parent="_Nc8eTW4AAFqFcOwRR8p-119">
          <mxGeometry width="50" height="50" relative="1" as="geometry">
            <mxPoint x="69.23076923076923" y="22.500734522560336" as="sourcePoint" />
            <mxPoint x="55.38461538461539" as="targetPoint" />
          </mxGeometry>
        </mxCell>
        <mxCell id="_Nc8eTW4AAFqFcOwRR8p-142" value="" style="endArrow=none;html=1;rounded=0;strokeWidth=4;" edge="1" parent="_Nc8eTW4AAFqFcOwRR8p-119">
          <mxGeometry width="50" height="50" relative="1" as="geometry">
            <mxPoint x="20.76923076923077" y="22.500734522560336" as="sourcePoint" />
            <mxPoint x="34.61538461538461" as="targetPoint" />
          </mxGeometry>
        </mxCell>
        <mxCell id="_Nc8eTW4AAFqFcOwRR8p-143" value="" style="endArrow=none;html=1;rounded=0;strokeWidth=9;" edge="1" parent="_Nc8eTW4AAFqFcOwRR8p-119">
          <mxGeometry width="50" height="50" relative="1" as="geometry">
            <mxPoint y="22.500734522560336" as="sourcePoint" />
            <mxPoint x="90" y="22.500734522560336" as="targetPoint" />
          </mxGeometry>
        </mxCell>
        <mxCell id="_Nc8eTW4AAFqFcOwRR8p-144" value="" style="endArrow=none;html=1;rounded=0;" edge="1" parent="_Nc8eTW4AAFqFcOwRR8p-119">
          <mxGeometry width="50" height="50" relative="1" as="geometry">
            <mxPoint x="27.692307692307693" y="11.250367261280168" as="sourcePoint" />
            <mxPoint x="62.30769230769231" y="11.250367261280168" as="targetPoint" />
          </mxGeometry>
        </mxCell>
        <mxCell id="_Nc8eTW4AAFqFcOwRR8p-145" value="" style="group" vertex="1" connectable="0" parent="_Nc8eTW4AAFqFcOwRR8p-119">
          <mxGeometry x="20.772692307692306" y="142.50840209863597" width="49.15384615384616" height="125.53159790136414" as="geometry" />
        </mxCell>
        <mxCell id="_Nc8eTW4AAFqFcOwRR8p-146" value="" style="rounded=0;whiteSpace=wrap;html=1;rotation=90;" vertex="1" parent="_Nc8eTW4AAFqFcOwRR8p-145">
          <mxGeometry x="-33.35884615384616" y="30.40982287662664" width="115.87153846153848" height="53.25173837005946" as="geometry" />
        </mxCell>
        <mxCell id="_Nc8eTW4AAFqFcOwRR8p-147" value="" style="rounded=0;whiteSpace=wrap;html=1;" vertex="1" parent="_Nc8eTW4AAFqFcOwRR8p-145">
          <mxGeometry x="3.6657692307692358" y="2.6588367960825474" width="41.822307692307696" height="14.092960055963623" as="geometry" />
        </mxCell>
        <mxCell id="_Nc8eTW4AAFqFcOwRR8p-148" value="" style="rounded=0;whiteSpace=wrap;html=1;" vertex="1" parent="_Nc8eTW4AAFqFcOwRR8p-145">
          <mxGeometry x="3.6657692307692358" y="22.046969709688707" width="41.822307692307696" height="14.092960055963623" as="geometry" />
        </mxCell>
        <mxCell id="_Nc8eTW4AAFqFcOwRR8p-149" value="" style="rounded=0;whiteSpace=wrap;html=1;" vertex="1" parent="_Nc8eTW4AAFqFcOwRR8p-145">
          <mxGeometry x="3.665769230769228" y="40.16006100034978" width="41.822307692307696" height="14.092960055963623" as="geometry" />
        </mxCell>
        <mxCell id="_Nc8eTW4AAFqFcOwRR8p-150" value="" style="rounded=0;whiteSpace=wrap;html=1;" vertex="1" parent="_Nc8eTW4AAFqFcOwRR8p-145">
          <mxGeometry x="3.665769230769228" y="59.54819391395586" width="41.822307692307696" height="14.092960055963623" as="geometry" />
        </mxCell>
        <mxCell id="_Nc8eTW4AAFqFcOwRR8p-151" value="" style="rounded=0;whiteSpace=wrap;html=1;" vertex="1" parent="_Nc8eTW4AAFqFcOwRR8p-145">
          <mxGeometry x="3.665769230769228" y="77.93129401888766" width="41.822307692307696" height="14.092960055963623" as="geometry" />
        </mxCell>
        <mxCell id="_Nc8eTW4AAFqFcOwRR8p-152" value="" style="rounded=0;whiteSpace=wrap;html=1;" vertex="1" parent="_Nc8eTW4AAFqFcOwRR8p-145">
          <mxGeometry x="3.665769230769228" y="97.31942693249376" width="41.822307692307696" height="14.092960055963623" as="geometry" />
        </mxCell>
        <mxCell id="_Nc8eTW4AAFqFcOwRR8p-153" value="" style="group;aspect=fixed;" vertex="1" connectable="0" parent="1">
          <mxGeometry x="10" y="390" width="90" height="268.04" as="geometry" />
        </mxCell>
        <mxCell id="_Nc8eTW4AAFqFcOwRR8p-154" value="" style="endArrow=none;html=1;rounded=0;strokeWidth=4;" edge="1" parent="_Nc8eTW4AAFqFcOwRR8p-153">
          <mxGeometry width="50" height="50" relative="1" as="geometry">
            <mxPoint x="20.76923076923077" y="142.50465197621546" as="sourcePoint" />
            <mxPoint x="20.76923076923077" y="22.500734522560336" as="targetPoint" />
          </mxGeometry>
        </mxCell>
        <mxCell id="_Nc8eTW4AAFqFcOwRR8p-155" value="" style="endArrow=none;html=1;rounded=0;strokeWidth=4;" edge="1" parent="_Nc8eTW4AAFqFcOwRR8p-153">
          <mxGeometry width="50" height="50" relative="1" as="geometry">
            <mxPoint x="69.23076923076923" y="142.50465197621546" as="sourcePoint" />
            <mxPoint x="69.23076923076923" y="22.500734522560336" as="targetPoint" />
          </mxGeometry>
        </mxCell>
        <mxCell id="_Nc8eTW4AAFqFcOwRR8p-156" value="" style="endArrow=none;html=1;rounded=0;" edge="1" parent="_Nc8eTW4AAFqFcOwRR8p-153">
          <mxGeometry width="50" height="50" relative="1" as="geometry">
            <mxPoint x="45" y="142.50465197621546" as="sourcePoint" />
            <mxPoint x="45" as="targetPoint" />
          </mxGeometry>
        </mxCell>
        <mxCell id="_Nc8eTW4AAFqFcOwRR8p-157" value="" style="endArrow=none;html=1;rounded=0;" edge="1" parent="_Nc8eTW4AAFqFcOwRR8p-153">
          <mxGeometry width="50" height="50" relative="1" as="geometry">
            <mxPoint x="20.76923076923077" y="30.000979363413784" as="sourcePoint" />
            <mxPoint x="69.23076923076923" y="30.000979363413784" as="targetPoint" />
          </mxGeometry>
        </mxCell>
        <mxCell id="_Nc8eTW4AAFqFcOwRR8p-158" value="" style="endArrow=none;html=1;rounded=0;" edge="1" parent="_Nc8eTW4AAFqFcOwRR8p-153">
          <mxGeometry width="50" height="50" relative="1" as="geometry">
            <mxPoint x="20.76923076923077" y="37.50122420426723" as="sourcePoint" />
            <mxPoint x="69.23076923076923" y="37.50122420426723" as="targetPoint" />
          </mxGeometry>
        </mxCell>
        <mxCell id="_Nc8eTW4AAFqFcOwRR8p-159" value="" style="endArrow=none;html=1;rounded=0;" edge="1" parent="_Nc8eTW4AAFqFcOwRR8p-153">
          <mxGeometry width="50" height="50" relative="1" as="geometry">
            <mxPoint x="20.76923076923077" y="45.00146904512067" as="sourcePoint" />
            <mxPoint x="69.23076923076923" y="45.00146904512067" as="targetPoint" />
          </mxGeometry>
        </mxCell>
        <mxCell id="_Nc8eTW4AAFqFcOwRR8p-160" value="" style="endArrow=none;html=1;rounded=0;" edge="1" parent="_Nc8eTW4AAFqFcOwRR8p-153">
          <mxGeometry width="50" height="50" relative="1" as="geometry">
            <mxPoint x="20.76923076923077" y="52.50171388597412" as="sourcePoint" />
            <mxPoint x="69.23076923076923" y="52.50171388597412" as="targetPoint" />
          </mxGeometry>
        </mxCell>
        <mxCell id="_Nc8eTW4AAFqFcOwRR8p-161" value="" style="endArrow=none;html=1;rounded=0;" edge="1" parent="_Nc8eTW4AAFqFcOwRR8p-153">
          <mxGeometry width="50" height="50" relative="1" as="geometry">
            <mxPoint x="20.76923076923077" y="60.00195872682757" as="sourcePoint" />
            <mxPoint x="69.23076923076923" y="60.00195872682757" as="targetPoint" />
          </mxGeometry>
        </mxCell>
        <mxCell id="_Nc8eTW4AAFqFcOwRR8p-162" value="" style="endArrow=none;html=1;rounded=0;" edge="1" parent="_Nc8eTW4AAFqFcOwRR8p-153">
          <mxGeometry width="50" height="50" relative="1" as="geometry">
            <mxPoint x="20.76923076923077" y="67.50220356768101" as="sourcePoint" />
            <mxPoint x="69.23076923076923" y="67.50220356768101" as="targetPoint" />
          </mxGeometry>
        </mxCell>
        <mxCell id="_Nc8eTW4AAFqFcOwRR8p-163" value="" style="endArrow=none;html=1;rounded=0;" edge="1" parent="_Nc8eTW4AAFqFcOwRR8p-153">
          <mxGeometry width="50" height="50" relative="1" as="geometry">
            <mxPoint x="20.76923076923077" y="67.50220356768101" as="sourcePoint" />
            <mxPoint x="69.23076923076923" y="67.50220356768101" as="targetPoint" />
          </mxGeometry>
        </mxCell>
        <mxCell id="_Nc8eTW4AAFqFcOwRR8p-164" value="" style="endArrow=none;html=1;rounded=0;" edge="1" parent="_Nc8eTW4AAFqFcOwRR8p-153">
          <mxGeometry width="50" height="50" relative="1" as="geometry">
            <mxPoint x="20.76923076923077" y="75.00244840853446" as="sourcePoint" />
            <mxPoint x="69.23076923076923" y="75.00244840853446" as="targetPoint" />
          </mxGeometry>
        </mxCell>
        <mxCell id="_Nc8eTW4AAFqFcOwRR8p-165" value="" style="endArrow=none;html=1;rounded=0;" edge="1" parent="_Nc8eTW4AAFqFcOwRR8p-153">
          <mxGeometry width="50" height="50" relative="1" as="geometry">
            <mxPoint x="20.76923076923077" y="82.5026932493879" as="sourcePoint" />
            <mxPoint x="69.23076923076923" y="82.5026932493879" as="targetPoint" />
          </mxGeometry>
        </mxCell>
        <mxCell id="_Nc8eTW4AAFqFcOwRR8p-166" value="" style="endArrow=none;html=1;rounded=0;" edge="1" parent="_Nc8eTW4AAFqFcOwRR8p-153">
          <mxGeometry width="50" height="50" relative="1" as="geometry">
            <mxPoint x="20.76923076923077" y="90.00293809024134" as="sourcePoint" />
            <mxPoint x="69.23076923076923" y="90.00293809024134" as="targetPoint" />
          </mxGeometry>
        </mxCell>
        <mxCell id="_Nc8eTW4AAFqFcOwRR8p-167" value="" style="endArrow=none;html=1;rounded=0;" edge="1" parent="_Nc8eTW4AAFqFcOwRR8p-153">
          <mxGeometry width="50" height="50" relative="1" as="geometry">
            <mxPoint x="20.76923076923077" y="97.5031829310948" as="sourcePoint" />
            <mxPoint x="69.23076923076923" y="97.5031829310948" as="targetPoint" />
          </mxGeometry>
        </mxCell>
        <mxCell id="_Nc8eTW4AAFqFcOwRR8p-168" value="" style="endArrow=none;html=1;rounded=0;" edge="1" parent="_Nc8eTW4AAFqFcOwRR8p-153">
          <mxGeometry width="50" height="50" relative="1" as="geometry">
            <mxPoint x="20.76923076923077" y="105.00342777194824" as="sourcePoint" />
            <mxPoint x="69.23076923076923" y="105.00342777194824" as="targetPoint" />
          </mxGeometry>
        </mxCell>
        <mxCell id="_Nc8eTW4AAFqFcOwRR8p-169" value="" style="endArrow=none;html=1;rounded=0;" edge="1" parent="_Nc8eTW4AAFqFcOwRR8p-153">
          <mxGeometry width="50" height="50" relative="1" as="geometry">
            <mxPoint x="20.76923076923077" y="112.5036726128017" as="sourcePoint" />
            <mxPoint x="69.23076923076923" y="112.5036726128017" as="targetPoint" />
          </mxGeometry>
        </mxCell>
        <mxCell id="_Nc8eTW4AAFqFcOwRR8p-170" value="" style="endArrow=none;html=1;rounded=0;" edge="1" parent="_Nc8eTW4AAFqFcOwRR8p-153">
          <mxGeometry width="50" height="50" relative="1" as="geometry">
            <mxPoint x="20.76923076923077" y="120.00391745365513" as="sourcePoint" />
            <mxPoint x="69.23076923076923" y="120.00391745365513" as="targetPoint" />
          </mxGeometry>
        </mxCell>
        <mxCell id="_Nc8eTW4AAFqFcOwRR8p-171" value="" style="endArrow=none;html=1;rounded=0;" edge="1" parent="_Nc8eTW4AAFqFcOwRR8p-153">
          <mxGeometry width="50" height="50" relative="1" as="geometry">
            <mxPoint x="20.76923076923077" y="127.50416229450857" as="sourcePoint" />
            <mxPoint x="69.23076923076923" y="127.50416229450857" as="targetPoint" />
          </mxGeometry>
        </mxCell>
        <mxCell id="_Nc8eTW4AAFqFcOwRR8p-172" value="" style="endArrow=none;html=1;rounded=0;" edge="1" parent="_Nc8eTW4AAFqFcOwRR8p-153">
          <mxGeometry width="50" height="50" relative="1" as="geometry">
            <mxPoint x="20.76923076923077" y="135.00440713536202" as="sourcePoint" />
            <mxPoint x="69.23076923076923" y="135.00440713536202" as="targetPoint" />
          </mxGeometry>
        </mxCell>
        <mxCell id="_Nc8eTW4AAFqFcOwRR8p-173" value="" style="endArrow=none;html=1;rounded=0;" edge="1" parent="_Nc8eTW4AAFqFcOwRR8p-153">
          <mxGeometry width="50" height="50" relative="1" as="geometry">
            <mxPoint x="20.76923076923077" y="142.50465197621546" as="sourcePoint" />
            <mxPoint x="69.23076923076923" y="142.50465197621546" as="targetPoint" />
          </mxGeometry>
        </mxCell>
        <mxCell id="_Nc8eTW4AAFqFcOwRR8p-174" value="" style="endArrow=none;html=1;rounded=0;strokeWidth=4;" edge="1" parent="_Nc8eTW4AAFqFcOwRR8p-153">
          <mxGeometry width="50" height="50" relative="1" as="geometry">
            <mxPoint x="34.61538461538461" as="sourcePoint" />
            <mxPoint x="55.38461538461539" as="targetPoint" />
          </mxGeometry>
        </mxCell>
        <mxCell id="_Nc8eTW4AAFqFcOwRR8p-175" value="" style="endArrow=none;html=1;rounded=0;strokeWidth=4;" edge="1" parent="_Nc8eTW4AAFqFcOwRR8p-153">
          <mxGeometry width="50" height="50" relative="1" as="geometry">
            <mxPoint x="69.23076923076923" y="22.500734522560336" as="sourcePoint" />
            <mxPoint x="55.38461538461539" as="targetPoint" />
          </mxGeometry>
        </mxCell>
        <mxCell id="_Nc8eTW4AAFqFcOwRR8p-176" value="" style="endArrow=none;html=1;rounded=0;strokeWidth=4;" edge="1" parent="_Nc8eTW4AAFqFcOwRR8p-153">
          <mxGeometry width="50" height="50" relative="1" as="geometry">
            <mxPoint x="20.76923076923077" y="22.500734522560336" as="sourcePoint" />
            <mxPoint x="34.61538461538461" as="targetPoint" />
          </mxGeometry>
        </mxCell>
        <mxCell id="_Nc8eTW4AAFqFcOwRR8p-177" value="" style="endArrow=none;html=1;rounded=0;strokeWidth=9;" edge="1" parent="_Nc8eTW4AAFqFcOwRR8p-153">
          <mxGeometry width="50" height="50" relative="1" as="geometry">
            <mxPoint y="22.500734522560336" as="sourcePoint" />
            <mxPoint x="90" y="22.500734522560336" as="targetPoint" />
          </mxGeometry>
        </mxCell>
        <mxCell id="_Nc8eTW4AAFqFcOwRR8p-178" value="" style="endArrow=none;html=1;rounded=0;" edge="1" parent="_Nc8eTW4AAFqFcOwRR8p-153">
          <mxGeometry width="50" height="50" relative="1" as="geometry">
            <mxPoint x="27.692307692307693" y="11.250367261280168" as="sourcePoint" />
            <mxPoint x="62.30769230769231" y="11.250367261280168" as="targetPoint" />
          </mxGeometry>
        </mxCell>
        <mxCell id="_Nc8eTW4AAFqFcOwRR8p-179" value="" style="group" vertex="1" connectable="0" parent="_Nc8eTW4AAFqFcOwRR8p-153">
          <mxGeometry x="20.772692307692306" y="142.50840209863597" width="49.15384615384616" height="125.53159790136414" as="geometry" />
        </mxCell>
        <mxCell id="_Nc8eTW4AAFqFcOwRR8p-180" value="" style="rounded=0;whiteSpace=wrap;html=1;rotation=90;" vertex="1" parent="_Nc8eTW4AAFqFcOwRR8p-179">
          <mxGeometry x="-33.35884615384616" y="30.40982287662664" width="115.87153846153848" height="53.25173837005946" as="geometry" />
        </mxCell>
        <mxCell id="_Nc8eTW4AAFqFcOwRR8p-181" value="" style="rounded=0;whiteSpace=wrap;html=1;" vertex="1" parent="_Nc8eTW4AAFqFcOwRR8p-179">
          <mxGeometry x="3.6657692307692358" y="2.6588367960825474" width="41.822307692307696" height="14.092960055963623" as="geometry" />
        </mxCell>
        <mxCell id="_Nc8eTW4AAFqFcOwRR8p-182" value="" style="rounded=0;whiteSpace=wrap;html=1;" vertex="1" parent="_Nc8eTW4AAFqFcOwRR8p-179">
          <mxGeometry x="3.6657692307692358" y="22.046969709688707" width="41.822307692307696" height="14.092960055963623" as="geometry" />
        </mxCell>
        <mxCell id="_Nc8eTW4AAFqFcOwRR8p-183" value="" style="rounded=0;whiteSpace=wrap;html=1;" vertex="1" parent="_Nc8eTW4AAFqFcOwRR8p-179">
          <mxGeometry x="3.665769230769228" y="40.16006100034978" width="41.822307692307696" height="14.092960055963623" as="geometry" />
        </mxCell>
        <mxCell id="_Nc8eTW4AAFqFcOwRR8p-184" value="" style="rounded=0;whiteSpace=wrap;html=1;" vertex="1" parent="_Nc8eTW4AAFqFcOwRR8p-179">
          <mxGeometry x="3.665769230769228" y="59.54819391395586" width="41.822307692307696" height="14.092960055963623" as="geometry" />
        </mxCell>
        <mxCell id="_Nc8eTW4AAFqFcOwRR8p-185" value="" style="rounded=0;whiteSpace=wrap;html=1;" vertex="1" parent="_Nc8eTW4AAFqFcOwRR8p-179">
          <mxGeometry x="3.665769230769228" y="77.93129401888766" width="41.822307692307696" height="14.092960055963623" as="geometry" />
        </mxCell>
        <mxCell id="_Nc8eTW4AAFqFcOwRR8p-186" value="" style="rounded=0;whiteSpace=wrap;html=1;" vertex="1" parent="_Nc8eTW4AAFqFcOwRR8p-179">
          <mxGeometry x="3.665769230769228" y="97.31942693249376" width="41.822307692307696" height="14.092960055963623" as="geometry" />
        </mxCell>
        <mxCell id="_Nc8eTW4AAFqFcOwRR8p-330" value="" style="rounded=0;whiteSpace=wrap;html=1;rotation=90;" vertex="1" parent="1">
          <mxGeometry x="-18.99999999999909" y="1135.997272727273" width="46.25" height="15" as="geometry" />
        </mxCell>
        <mxCell id="_Nc8eTW4AAFqFcOwRR8p-331" value="" style="rounded=0;whiteSpace=wrap;html=1;rotation=90;" vertex="1" parent="1">
          <mxGeometry x="1.0000000000009095" y="1135.997272727273" width="46.25" height="13.75" as="geometry" />
        </mxCell>
        <mxCell id="_Nc8eTW4AAFqFcOwRR8p-332" value="" style="rounded=0;whiteSpace=wrap;html=1;rotation=90;" vertex="1" parent="1">
          <mxGeometry x="22.870000000000914" y="1135.997272727273" width="46.25" height="13.75" as="geometry" />
        </mxCell>
        <mxCell id="_Nc8eTW4AAFqFcOwRR8p-333" value="" style="rounded=0;whiteSpace=wrap;html=1;rotation=90;" vertex="1" parent="1">
          <mxGeometry x="41.00000000000091" y="1135.997272727273" width="46.25" height="13.75" as="geometry" />
        </mxCell>
        <mxCell id="_Nc8eTW4AAFqFcOwRR8p-334" value="" style="rounded=0;whiteSpace=wrap;html=1;rotation=90;" vertex="1" parent="1">
          <mxGeometry x="60.75000000000091" y="1135.997272727273" width="46.25" height="13.75" as="geometry" />
        </mxCell>
        <mxCell id="_Nc8eTW4AAFqFcOwRR8p-335" value="" style="rounded=0;whiteSpace=wrap;html=1;rotation=90;" vertex="1" parent="1">
          <mxGeometry x="131.0000000000009" y="1135.997272727273" width="46.25" height="15" as="geometry" />
        </mxCell>
        <mxCell id="_Nc8eTW4AAFqFcOwRR8p-336" value="" style="rounded=0;whiteSpace=wrap;html=1;rotation=90;" vertex="1" parent="1">
          <mxGeometry x="151.0000000000009" y="1135.997272727273" width="46.25" height="13.75" as="geometry" />
        </mxCell>
        <mxCell id="_Nc8eTW4AAFqFcOwRR8p-337" value="" style="rounded=0;whiteSpace=wrap;html=1;rotation=90;" vertex="1" parent="1">
          <mxGeometry x="172.8700000000009" y="1135.997272727273" width="46.25" height="13.75" as="geometry" />
        </mxCell>
        <mxCell id="_Nc8eTW4AAFqFcOwRR8p-338" value="" style="rounded=0;whiteSpace=wrap;html=1;rotation=90;" vertex="1" parent="1">
          <mxGeometry x="191.0000000000009" y="1135.997272727273" width="46.25" height="13.75" as="geometry" />
        </mxCell>
        <mxCell id="_Nc8eTW4AAFqFcOwRR8p-339" value="" style="rounded=0;whiteSpace=wrap;html=1;rotation=90;" vertex="1" parent="1">
          <mxGeometry x="210.7500000000009" y="1135.997272727273" width="46.25" height="13.75" as="geometry" />
        </mxCell>
        <mxCell id="_Nc8eTW4AAFqFcOwRR8p-340" value="" style="rounded=0;whiteSpace=wrap;html=1;rotation=90;" vertex="1" parent="1">
          <mxGeometry x="281.0000000000009" y="1136.997272727273" width="46.25" height="15" as="geometry" />
        </mxCell>
        <mxCell id="_Nc8eTW4AAFqFcOwRR8p-341" value="" style="rounded=0;whiteSpace=wrap;html=1;rotation=90;" vertex="1" parent="1">
          <mxGeometry x="301.0000000000009" y="1136.997272727273" width="46.25" height="13.75" as="geometry" />
        </mxCell>
        <mxCell id="_Nc8eTW4AAFqFcOwRR8p-342" value="" style="rounded=0;whiteSpace=wrap;html=1;rotation=90;" vertex="1" parent="1">
          <mxGeometry x="322.8700000000009" y="1136.997272727273" width="46.25" height="13.75" as="geometry" />
        </mxCell>
        <mxCell id="_Nc8eTW4AAFqFcOwRR8p-343" value="" style="rounded=0;whiteSpace=wrap;html=1;rotation=90;" vertex="1" parent="1">
          <mxGeometry x="341.0000000000009" y="1136.997272727273" width="46.25" height="13.75" as="geometry" />
        </mxCell>
        <mxCell id="_Nc8eTW4AAFqFcOwRR8p-344" value="" style="rounded=0;whiteSpace=wrap;html=1;rotation=90;" vertex="1" parent="1">
          <mxGeometry x="360.7500000000009" y="1136.997272727273" width="46.25" height="13.75" as="geometry" />
        </mxCell>
        <mxCell id="_Nc8eTW4AAFqFcOwRR8p-369" value="&lt;font face=&quot;Times New Roman&quot; style=&quot;font-size: 20px;&quot;&gt;1&lt;/font&gt;" style="text;html=1;align=center;verticalAlign=middle;resizable=0;points=[];autosize=1;strokeColor=none;fillColor=none;" vertex="1" parent="1">
          <mxGeometry x="-175" y="503" width="30" height="40" as="geometry" />
        </mxCell>
        <mxCell id="_Nc8eTW4AAFqFcOwRR8p-371" value="&lt;font face=&quot;Times New Roman&quot; style=&quot;font-size: 20px;&quot;&gt;&lt;i&gt;x&lt;sub&gt;R&lt;/sub&gt;&lt;/i&gt;&lt;/font&gt;" style="text;html=1;align=center;verticalAlign=middle;resizable=0;points=[];autosize=1;strokeColor=none;fillColor=none;" vertex="1" parent="1">
          <mxGeometry x="702" y="483" width="40" height="40" as="geometry" />
        </mxCell>
      </root>
    </mxGraphModel>
  </diagram>
</mxfile>
